<?xml version="1.0" encoding="UTF-8"?>
<svg width="88px" height="88px" viewBox="0 0 88 88" version="1.1" xmlns="http://www.w3.org/2000/svg" xmlns:xlink="http://www.w3.org/1999/xlink">
    <!-- Generator: Sketch 48.2 (47327) - http://www.bohemiancoding.com/sketch -->
    <title>icon / 1</title>
    <desc>Created with Sketch.</desc>
    <defs></defs>
    <g id="styleguide" stroke="none" stroke-width="1" fill="none" fill-rule="evenodd" transform="translate(-127.000000, -1226.000000)">
        <g id="icon-/-1" transform="translate(127.000000, 1226.000000)">
            <g id="icon-/-back" fill="#2AD4CE">
                <rect id="Rectangle-7-Copy" x="0" y="0" width="88" height="88" rx="44"></rect>
            </g>
            <g id="checked" transform="translate(18.000000, 18.000000)" fill="#FFFFFF" fill-rule="nonzero">
                <path d="M48.0668816,16.3216388 L40.4669049,16.3216388 L50.8710447,5.9176 C51.403666,5.38467573 51.6970874,4.67636505 51.6970874,3.92302136 C51.6970874,3.16967767 51.403666,2.46136699 50.8709437,1.92854369 L49.7855068,0.843106796 C48.685732,-0.256667961 46.8962252,-0.256667961 45.7963495,0.843106796 L30.3178175,16.3216388 L3.31810485,16.3216388 C1.48851262,16.3216388 0,17.8101515 0,19.6398447 L0,40.2829359 C0,42.1126291 1.48851262,43.6011417 3.31810485,43.6011417 L48.0668816,43.6011417 C49.8964738,43.6011417 51.3849864,42.1126291 51.3849864,40.2829359 L51.3849864,19.6398447 C51.3849864,17.8101515 49.8964738,16.3216388 48.0668816,16.3216388 Z M47.2527534,2.29951068 C47.5494058,2.00295922 48.0323495,2.00275728 48.3290019,2.29951068 L49.4144388,3.38494757 C49.5582214,3.5287301 49.6373825,3.71976699 49.6373825,3.92302136 C49.6373825,4.1263767 49.5582214,4.31741359 49.4144388,4.46119612 L46.7777864,7.09784854 L44.9262835,5.2464466 L44.616101,4.93626408 L47.2527534,2.29951068 Z M43.1597981,6.39236505 L45.3214835,8.55405049 L24.7301903,29.1454447 L21.4877126,30.2262369 L22.5685049,26.9837592 L43.1597981,6.39236505 Z M49.3252816,40.2829359 C49.3252816,40.9768078 48.7607534,41.5414369 48.0668816,41.5414369 L3.31810485,41.5414369 C2.62423301,41.5414369 2.05970485,40.9769087 2.05970485,40.2829359 L2.05970485,19.6398447 C2.05970485,18.9459728 2.62423301,18.3813437 3.31810485,18.3813437 L28.2582136,18.3813437 L20.9402485,25.6994097 C20.8271612,25.8124971 20.7420427,25.9504233 20.6914563,26.1019806 L18.8824621,31.5290641 C18.7590757,31.8991223 18.8554019,32.3071456 19.1312544,32.5828971 C19.3275417,32.7791845 19.5907728,32.8844971 19.8596583,32.8844971 C19.9686058,32.8844971 20.0784621,32.8672311 20.1851883,32.8315883 L25.6122718,31.0226951 C25.7639301,30.9721087 25.9017553,30.8869903 26.0148427,30.7739029 L38.4072,18.3814447 L48.0667806,18.3814447 C48.7606524,18.3814447 49.3251806,18.9459728 49.3251806,19.6399456 L49.3251806,40.2829359 L49.3252816,40.2829359 Z" id="Shape"></path>
                <path d="M45.5454369,37.1696 L44.931534,37.1696 C44.362765,37.1696 43.901732,37.630734 43.901732,38.1994019 C43.901732,38.7680699 44.362765,39.2292039 44.931534,39.2292039 L45.5454369,39.2292039 C46.1142058,39.2292039 46.5752388,38.7680699 46.5752388,38.1994019 C46.5752388,37.630734 46.1142058,37.1696 45.5454369,37.1696 Z" id="Shape"></path>
                <path d="M40.8379728,37.1696 L17.4033398,37.1696 C16.8345709,37.1696 16.3735379,37.630734 16.3735379,38.1994019 C16.3735379,38.7680699 16.8345709,39.2292039 17.4033398,39.2292039 L40.8379728,39.2292039 C41.4067417,39.2292039 41.8677748,38.7680699 41.8677748,38.1994019 C41.8677748,37.630734 41.4067417,37.1696 40.8379728,37.1696 Z" id="Shape"></path>
                <path d="M45.5454369,31.2341282 L30.1952388,31.2341282 C29.6264699,31.2341282 29.1654369,31.6952621 29.1654369,32.2639301 C29.1654369,32.8325981 29.6264699,33.293732 30.1952388,33.293732 L45.5454369,33.293732 C46.1142058,33.293732 46.5752388,32.8325981 46.5752388,32.2639301 C46.5752388,31.6952621 46.1142058,31.2341282 45.5454369,31.2341282 Z" id="Shape"></path>
                <path d="M10.8631534,27.889266 L10.8631534,24.0708505 C12.1798136,24.1649553 12.6688155,24.7669437 13.1202563,24.7669437 C13.6844816,24.7669437 13.9479146,24.0521709 13.9479146,23.694835 C13.9479146,22.7731728 12.1422524,22.3781748 10.8631534,22.3406136 L10.8631534,21.8327301 C10.8631534,21.6069592 10.5809398,21.4000699 10.2989282,21.4000699 C9.9791534,21.4000699 9.75338252,21.6069592 9.75338252,21.8327301 L9.75338252,22.3782757 C7.9664,22.5662835 6.17961942,23.5067262 6.17961942,25.8768155 C6.17961942,28.284466 8.06060583,28.9616777 9.75338252,29.563565 L9.75338252,33.983767 C7.83483495,33.8333204 7.32695146,32.5165592 6.7062835,32.5165592 C6.23606214,32.5165592 5.84106408,33.1372272 5.84106408,33.588668 C5.84106408,34.5103301 7.42105631,35.7706485 9.7534835,35.8082097 L9.7534835,36.3913165 C9.7534835,36.6169864 9.97925437,36.8239767 10.2990291,36.8239767 C10.5812427,36.8239767 10.8632544,36.6169864 10.8632544,36.3913165 L10.8632544,35.751767 C12.8946874,35.4695534 14.2865709,34.1905553 14.2865709,31.8769087 C14.2865709,29.3187107 12.4995883,28.4911534 10.8631534,27.889266 Z M9.86626796,27.5319301 C8.86938252,27.1558136 8.06060583,26.7608155 8.06060583,25.6886058 C8.06060583,24.710501 8.81304078,24.2403806 9.86626796,24.1086136 L9.86626796,27.5319301 Z M10.750268,33.9459029 L10.750268,29.9770408 C11.6719301,30.3720388 12.4054835,30.8987029 12.4054835,32.0837981 C12.4055845,33.1559068 11.766035,33.7578951 10.750268,33.9459029 Z" id="Shape"></path>
            </g>
        </g>
    </g>
</svg>