<?xml version="1.0" encoding="UTF-8"?>
<svg width="88px" height="88px" viewBox="0 0 88 88" version="1.1" xmlns="http://www.w3.org/2000/svg" xmlns:xlink="http://www.w3.org/1999/xlink">
    <!-- Generator: Sketch 48.2 (47327) - http://www.bohemiancoding.com/sketch -->
    <title>icon / 10</title>
    <desc>Created with Sketch.</desc>
    <defs></defs>
    <g id="styleguide" stroke="none" stroke-width="1" fill="none" fill-rule="evenodd" transform="translate(-503.000000, -1414.000000)">
        <g id="icon-/-10" transform="translate(503.000000, 1414.000000)">
            <g id="icon-/-back" fill="#2AD4CE">
                <rect id="Rectangle-7-Copy" x="0" y="0" width="88" height="88" rx="44"></rect>
            </g>
            <g id="conversation" transform="translate(18.000000, 21.000000)" fill="#FFFFFF" fill-rule="nonzero">
                <path d="M43.4484738,6.32380583 L28.3757437,6.32380583 L28.3757437,1.05413592 C28.3757437,0.48536699 27.9147107,0.0243339806 27.3459417,0.0243339806 L3.49046214,0.0243339806 C2.9216932,0.0243339806 2.46066019,0.48536699 2.46066019,1.05413592 L2.46066019,14.9955883 C2.46066019,15.5643573 2.9216932,16.0253903 3.49046214,16.0253903 L17.6930252,16.0253903 L17.6930252,19.5394796 C17.6930252,19.9559845 17.9440388,20.3314951 18.3287379,20.4909282 C18.4561631,20.5437359 18.5899495,20.5693825 18.7226252,20.5693825 C18.9906019,20.5693825 19.254035,20.4646757 19.4510291,20.2677825 L23.6933204,16.0254913 L24.5605592,16.0254913 L24.5605592,17.7902602 C24.5605592,18.3590291 25.0215922,18.8200621 25.5903612,18.8200621 L28.2174214,18.8200621 L31.3173282,21.9200699 C31.5144233,22.1170641 31.7777553,22.2216699 32.045732,22.2216699 C32.1784078,22.2216699 32.3122951,22.1959223 32.4396194,22.1432155 C32.8244194,21.9837825 33.075332,21.6083728 33.075332,21.191767 L33.075332,18.8199612 L43.4484738,18.8199612 C44.0172427,18.8199612 44.4782757,18.3589282 44.4782757,17.7901592 L44.4782757,7.35360777 C44.4783767,6.78483883 44.0173437,6.32380583 43.4484738,6.32380583 Z M26.3160388,13.9656854 L23.2667184,13.9656854 L23.2667184,13.9657864 C22.9935922,13.9657864 22.7316738,14.0743301 22.5385165,14.2673864 L19.7526291,17.0532738 L19.7526291,14.9955883 C19.7526291,14.4268194 19.2915961,13.9657864 18.7228272,13.9657864 L4.52026408,13.9657864 L4.52026408,2.08393786 L26.3160388,2.08393786 L26.3160388,13.9656854 Z M42.4186718,16.7604583 L32.0455301,16.7604583 C31.4767612,16.7604583 31.0157282,17.2214913 31.0157282,17.7902602 L31.0157282,18.7056621 L29.3722252,17.0620583 C29.1791689,16.8690019 28.9171495,16.7604583 28.6440233,16.7604583 L26.6202641,16.7604583 L26.6202641,16.0254913 L27.3458408,16.0254913 C27.9146097,16.0254913 28.3756427,15.5644583 28.3756427,14.9956893 L28.3756427,8.38351068 L42.4186718,8.38351068 L42.4186718,16.7604583 Z" id="Shape"></path>
                <path d="M39.7429437,9.95734369 L31.0635883,9.95734369 C30.4948194,9.95734369 30.0337864,10.4183767 30.0337864,10.9871456 C30.0337864,11.5559146 30.4948194,12.0169476 31.0635883,12.0169476 L39.7429437,12.0169476 C40.3117126,12.0169476 40.7727456,11.5559146 40.7727456,10.9871456 C40.7727456,10.4183767 40.3117126,9.95734369 39.7429437,9.95734369 Z" id="Shape"></path>
                <path d="M39.7429437,13.0496777 L31.0635883,13.0496777 C30.4948194,13.0496777 30.0337864,13.5107107 30.0337864,14.0794796 C30.0337864,14.6482485 30.4948194,15.1092816 31.0635883,15.1092816 L39.7429437,15.1092816 C40.3117126,15.1092816 40.7727456,14.6482485 40.7727456,14.0794796 C40.7727456,13.5107107 40.3117126,13.0496777 39.7429437,13.0496777 Z" id="Shape"></path>
                <path d="M16.008932,21.8026408 C15.2780039,21.0225398 14.2456777,20.5751379 13.176699,20.5751379 L10.5519612,20.5751379 C9.48298252,20.5751379 8.45075728,21.0226408 7.71982913,21.8026408 C6.98890097,22.5827417 6.6095534,23.6419262 6.6792233,24.7086835 L6.79594563,26.4973825 L7.06816311,30.6744466 C7.17559612,32.3205748 8.10260971,33.7779883 9.54810874,34.572932 C10.2732816,34.971868 11.0687301,35.1712854 11.8643806,35.1712854 C12.6598291,35.1712854 13.4555806,34.971767 14.1805515,34.572932 C15.6260505,33.7779883 16.5530641,32.3204738 16.6604971,30.6744466 L16.9717903,25.9013515 L16.9717903,25.9012505 L17.0495379,24.7086835 C17.1189049,23.6420272 16.7397592,22.5827417 16.008932,21.8026408 Z M8.73438447,24.5745942 C8.70126602,24.0667107 8.87463301,23.5823534 9.22267961,23.2107806 C9.57072621,22.8393087 10.042765,22.6347417 10.5518602,22.6347417 L12.5151379,22.6347417 L12.1309437,23.6592932 C11.9955417,23.8530563 11.1425398,24.9281942 8.78143689,25.2968388 L8.73438447,24.5745942 Z M14.605033,30.5403573 C14.5436427,31.4811029 14.0139495,32.3139107 13.1879068,32.7682796 C12.3590369,33.2241631 11.3694214,33.2241631 10.5405515,32.7682796 C9.71450874,32.3139107 9.18481553,31.4811029 9.12342524,30.5403573 L8.91603107,27.3594718 C10.8704233,27.0905864 12.1251883,26.4191301 12.8968078,25.8016932 C13.0478602,25.9120544 13.2176932,26.0159534 13.4061049,26.1131883 C13.7376932,26.2845359 14.2179107,26.4543689 14.8602874,26.627534 L14.605033,30.5403573 Z M14.3513942,24.2833942 C14.2613282,24.2368466 14.1934757,24.1954485 14.1425864,24.1607146 L14.5006291,23.205833 C14.5022447,23.2075495 14.5041631,23.2090641 14.5057786,23.2107806 C14.8424155,23.5701359 15.0157825,24.0350058 14.996699,24.5248155 C14.6373437,24.4148583 14.4478214,24.3331728 14.3513942,24.2833942 Z" id="Shape"></path>
                <path d="M23.7122019,44.401033 L23.2774214,42.0016621 C22.7452039,39.0639146 20.4178252,36.7191689 17.486035,36.1670602 C17.0431767,36.0836583 16.5905243,36.0414524 16.1405981,36.0414524 L14.8315107,36.0414524 C14.5583845,36.0414524 14.296466,36.1499961 14.1033087,36.3430524 L11.8644816,38.5819806 L9.62545243,36.3429515 C9.43239612,36.1498951 9.1703767,36.0413515 8.89725049,36.0413515 L7.58806214,36.0413515 C7.13803495,36.0413515 6.68538252,36.0836583 6.24272621,36.1669592 C3.31093592,36.718967 0.983456311,39.0636117 0.451238835,42.0015612 L0.0165592233,44.401033 C-0.0378640777,44.7014214 0.0438213592,45.0103922 0.239502913,45.2446447 C0.435184466,45.4788971 0.724667961,45.614299 1.02990291,45.614299 L22.6989592,45.614299 C23.0041942,45.614299 23.2936777,45.4788971 23.4893592,45.2446447 C23.6850408,45.0103922 23.7665243,44.7013204 23.7122019,44.401033 Z M2.26285825,43.5549981 L2.26285825,43.5548971 L2.47772427,42.3688932 C2.85888932,40.265266 4.52500971,38.5864233 6.62368932,38.1913243 C6.94104078,38.1315495 7.26556117,38.1012583 7.58806214,38.1012583 L8.47064854,38.1012583 L11.1361786,40.7667883 C11.329235,40.9598447 11.5912544,41.0683883 11.8643806,41.0683883 C12.1375068,41.0683883 12.3994252,40.9598447 12.5925825,40.7667883 L15.2580117,38.1012583 L16.1405981,38.1012583 C16.4629981,38.1012583 16.7875184,38.1315495 17.1049709,38.1913243 C19.2036505,38.5864233 20.8697709,40.265367 21.2509359,42.3688932 L21.4658019,43.5549981 L2.26285825,43.5549981 Z" id="Shape"></path>
                <path d="M43.9772583,21.8025398 C43.2463301,21.0225398 42.2141049,20.5751379 41.1450252,20.5751379 L38.5202874,20.5751379 C37.4512078,20.5751379 36.4189825,21.0226408 35.6880544,21.8026408 C34.9572272,22.5828427 34.5778796,23.6420272 34.6475495,24.7086835 L34.7642718,26.4973825 L35.0366913,30.6744466 C35.1441243,32.3205748 36.0711379,33.7779883 37.5166369,34.572932 C38.2418097,34.971868 39.0372583,35.1712854 39.8329087,35.1712854 C40.6283573,35.1712854 41.4241087,34.971767 42.1490796,34.572932 C43.5945786,33.7779883 44.5215922,32.3204738 44.6290252,30.6744466 L44.9402175,25.9013515 L45.017965,24.7086835 C45.087332,23.6419262 44.7080854,22.5826408 43.9772583,21.8025398 Z M36.7028117,24.5745942 C36.6697942,24.0667107 36.8431612,23.5823534 37.1911068,23.2107806 C37.5391534,22.8393087 38.0112932,22.6347417 38.5202874,22.6347417 L40.483565,22.6347417 L40.0993709,23.6592932 C39.9639689,23.8530563 39.110967,24.9281942 36.7498641,25.2968388 L36.7028117,24.5745942 Z M42.5733592,30.5403573 C42.5121709,31.4811029 41.9824777,32.3139107 41.156334,32.7682796 C40.3274641,33.2241631 39.3378485,33.2241631 38.5089786,32.7682796 C37.6829359,32.3139107 37.1532427,31.4811029 37.0918524,30.5403573 L36.8844583,27.3594718 C38.8388505,27.0905864 40.0936155,26.4191301 40.865235,25.8016932 C41.0162874,25.9120544 41.1861204,26.0159534 41.3743301,26.1131883 C41.7059184,26.284435 42.186035,26.454268 42.8285126,26.627534 L42.5733592,30.5403573 Z M42.3198214,24.2833942 C42.2297553,24.2368466 42.1620039,24.1954485 42.1110136,24.1607146 L42.4690563,23.205833 C42.4706718,23.2075495 42.4724893,23.2090641 42.4741049,23.2106796 C42.8107417,23.5701359 42.9841087,24.0350058 42.9651262,24.5248155 C42.6057709,24.4148583 42.4163495,24.3331728 42.3198214,24.2833942 Z" id="Shape"></path>
                <path d="M51.6805282,44.401033 L51.2458485,42.0015612 C50.7136311,39.0638136 48.3861515,36.719068 45.4543612,36.1670602 C45.0115029,36.0836583 44.5589515,36.0414524 44.1089243,36.0414524 L42.7998369,36.0414524 C42.5267107,36.0414524 42.2647922,36.1499961 42.071635,36.3430524 L39.8327068,38.5819806 L37.5938796,36.3430524 C37.4008233,36.1499961 37.1388039,36.0414524 36.8656777,36.0414524 L35.5565903,36.0414524 C35.1065631,36.0414524 34.6538097,36.0837592 34.2111534,36.1670602 C31.2793631,36.719068 28.9519845,39.0637126 28.419767,42.0016621 L27.9850874,44.401134 C27.9306641,44.7015223 28.0123495,45.0104932 28.2080311,45.2447456 C28.4037126,45.4789981 28.6931961,45.6144 28.9984311,45.6144 L50.6671845,45.6144 C50.9724194,45.6144 51.2619029,45.4789981 51.4575845,45.2447456 C51.653266,45.0103922 51.7348505,44.7014214 51.6805282,44.401033 Z M30.2313864,43.5549981 L30.2313864,43.5548971 L30.4462524,42.3688932 C30.8274175,40.265266 32.4934369,38.5864233 34.5922175,38.1913243 C34.9096699,38.1315495 35.2340893,38.1012583 35.5565903,38.1012583 L36.4391767,38.1012583 L39.1046058,40.7667883 C39.2976621,40.9598447 39.5596816,41.0683883 39.8328078,41.0683883 C40.105934,41.0683883 40.3678524,40.9598447 40.5610097,40.7667883 L43.2265398,38.1012583 L44.1091262,38.1012583 C44.4315262,38.1012583 44.7560466,38.1315495 45.073499,38.1913243 C47.1721786,38.5864233 48.8384,40.265367 49.2194641,42.3688932 L49.4343301,43.5549981 L30.2313864,43.5549981 Z" id="Shape"></path>
                <path d="M23.0085359,4.87800388 L22.3888777,4.87800388 C21.8201087,4.87800388 21.3590757,5.33903689 21.3590757,5.90780583 C21.3590757,6.47657476 21.8201087,6.93760777 22.3888777,6.93760777 L23.0085359,6.93760777 C23.5773049,6.93760777 24.0383379,6.47657476 24.0383379,5.90780583 C24.0383379,5.33903689 23.5773049,4.87800388 23.0085359,4.87800388 Z" id="Shape"></path>
                <path d="M18.7745243,4.87800388 L7.82776699,4.87800388 C7.25899806,4.87800388 6.79796505,5.33903689 6.79796505,5.90780583 C6.79796505,6.47657476 7.25899806,6.93760777 7.82776699,6.93760777 L18.7745243,6.93760777 C19.3432932,6.93760777 19.8043262,6.47657476 19.8043262,5.90780583 C19.8043262,5.33903689 19.3432932,4.87800388 18.7745243,4.87800388 Z" id="Shape"></path>
                <path d="M23.0085359,9.0088233 L7.82776699,9.0088233 C7.25899806,9.0088233 6.79796505,9.46985631 6.79796505,10.0386252 C6.79796505,10.6073942 7.25899806,11.0684272 7.82776699,11.0684272 L23.008435,11.0684272 C23.5772039,11.0684272 24.0382369,10.6073942 24.0382369,10.0386252 C24.0383379,9.46985631 23.5773049,9.0088233 23.0085359,9.0088233 Z" id="Shape"></path>
            </g>
        </g>
    </g>
</svg>