<?xml version="1.0" encoding="UTF-8"?>
<svg width="88px" height="88px" viewBox="0 0 88 88" version="1.1" xmlns="http://www.w3.org/2000/svg" xmlns:xlink="http://www.w3.org/1999/xlink">
    <!-- Generator: Sketch 48.2 (47327) - http://www.bohemiancoding.com/sketch -->
    <title>icon / 11</title>
    <desc>Created with Sketch.</desc>
    <defs></defs>
    <g id="styleguide" stroke="none" stroke-width="1" fill="none" fill-rule="evenodd" transform="translate(-503.000000, -1602.000000)">
        <g id="icon-/-11" transform="translate(503.000000, 1602.000000)">
            <g id="icon-/-back" fill="#2AD4CE">
                <rect id="Rectangle-7-Copy" x="0" y="0" width="88" height="88" rx="44"></rect>
            </g>
            <g id="agreement" transform="translate(25.000000, 19.000000)" fill="#FFFFFF" fill-rule="nonzero">
                <path d="M36.4786563,0 L1.08250874,0 C0.513840777,0 0.0527067961,0.46103301 0.0527067961,1.02980194 L0.0527067961,50.6672854 C0.0527067961,51.2360544 0.513840777,51.6970874 1.08250874,51.6970874 L27.9975068,51.6970874 C28.270633,51.6970874 28.5324505,51.5885437 28.7257087,51.3954874 L37.2069592,42.9141359 C37.4000155,42.7210796 37.5085592,42.4591612 37.5085592,42.185934 L37.5085592,1.02980194 C37.5085592,0.46103301 37.0474252,0 36.4786563,0 Z M29.0253903,48.1828971 L29.0209476,43.2093748 L33.9944699,43.2139184 L29.0253903,48.1828971 Z M35.4489553,41.1556272 L27.9910447,41.1488621 C27.9907417,41.1488621 27.9904388,41.1488621 27.9901359,41.1488621 C27.7170097,41.1488621 27.4550913,41.2574058 27.261934,41.4504621 C27.0686757,41.6438214 26.960132,41.9061437 26.960334,42.1795728 L26.9669981,49.6374835 L2.11231068,49.6374835 L2.11231068,2.05960388 L35.4489553,2.05960388 L35.4489553,41.1556272 Z" id="Shape"></path>
                <path d="M10.6042641,37.1548583 C8.01466408,37.1548583 5.90780583,39.2616155 5.90780583,41.8513165 C5.90780583,44.4411184 8.01476505,46.5478757 10.6042641,46.5478757 C13.193965,46.5478757 15.3008233,44.4411184 15.3008233,41.8513165 C15.3010252,39.2617165 13.194066,37.1548583 10.6042641,37.1548583 Z M10.6042641,44.4883728 C9.1502835,44.4883728 7.96740971,43.3053981 7.96740971,41.8514175 C7.96740971,40.3974369 9.1502835,39.2145631 10.6042641,39.2145631 C12.0582447,39.2145631 13.2412194,40.3974369 13.2412194,41.8514175 C13.2412194,43.3053981 12.0584466,44.4883728 10.6042641,44.4883728 Z" id="Shape"></path>
                <path d="M24.0326835,40.9869049 L18.3686214,40.9869049 C17.7999534,40.9869049 17.3388194,41.4479379 17.3388194,42.0167068 C17.3388194,42.5854757 17.7999534,43.0465087 18.3686214,43.0465087 L24.0326835,43.0465087 C24.6013515,43.0465087 25.0624854,42.5854757 25.0624854,42.0167068 C25.0624854,41.4479379 24.6013515,40.9869049 24.0326835,40.9869049 Z" id="Shape"></path>
                <path d="M10.2330951,6.17891262 L7.24657864,6.17891262 C6.67791068,6.17891262 6.2167767,6.63994563 6.2167767,7.20871456 C6.2167767,7.7774835 6.67791068,8.2385165 7.24657864,8.2385165 L10.2330951,8.2385165 C10.8017631,8.2385165 11.2628971,7.7774835 11.2628971,7.20871456 C11.2628971,6.63994563 10.8017631,6.17891262 10.2330951,6.17891262 Z" id="Shape"></path>
                <path d="M30.7265476,6.17891262 L21.767099,6.17891262 C21.1984311,6.17891262 20.7372971,6.63994563 20.7372971,7.20871456 C20.7372971,7.7774835 21.1984311,8.2385165 21.767099,8.2385165 L30.7265476,8.2385165 C31.2952155,8.2385165 31.7563495,7.7774835 31.7563495,7.20871456 C31.7563495,6.63994563 31.2952155,6.17891262 30.7265476,6.17891262 Z" id="Shape"></path>
                <path d="M30.7265476,10.6071922 L15.4851961,10.6071922 C14.9165282,10.6071922 14.4553942,11.0682252 14.4553942,11.6369942 C14.4553942,12.2057631 14.9165282,12.6667961 15.4851961,12.6667961 L30.7265476,12.6667961 C31.2952155,12.6667961 31.7563495,12.2057631 31.7563495,11.6369942 C31.7563495,11.0682252 31.2952155,10.6071922 30.7265476,10.6071922 Z" id="Shape"></path>
                <path d="M30.7780427,18.7427184 L6.78312233,18.7427184 C6.21445437,18.7427184 5.75332039,19.2037515 5.75332039,19.7725204 C5.75332039,20.3412893 6.21445437,20.8023223 6.78312233,20.8023223 L30.7779417,20.8023223 C31.3466097,20.8023223 31.8077437,20.3412893 31.8077437,19.7725204 C31.8077437,19.2037515 31.3467107,18.7427184 30.7780427,18.7427184 Z" id="Shape"></path>
                <path d="M30.7780427,22.2441864 L6.78312233,22.2441864 C6.21445437,22.2441864 5.75332039,22.7052194 5.75332039,23.2739883 C5.75332039,23.8427573 6.21445437,24.3037903 6.78312233,24.3037903 L30.7779417,24.3037903 C31.3466097,24.3037903 31.8077437,23.8427573 31.8077437,23.2739883 C31.8078447,22.7052194 31.3467107,22.2441864 30.7780427,22.2441864 Z" id="Shape"></path>
                <path d="M30.7780427,26.0545243 L6.78312233,26.0545243 C6.21445437,26.0545243 5.75332039,26.5155573 5.75332039,27.0843262 C5.75332039,27.6530951 6.21445437,28.1141282 6.78312233,28.1141282 L30.7779417,28.1141282 C31.3466097,28.1141282 31.8077437,27.6530951 31.8077437,27.0843262 C31.8078447,26.5155573 31.3467107,26.0545243 30.7780427,26.0545243 Z" id="Shape"></path>
                <path d="M30.7780427,29.5558913 L30.2115961,29.5558913 C29.6429282,29.5558913 29.1817942,30.0169243 29.1817942,30.5856932 C29.1817942,31.1544621 29.6429282,31.6154951 30.2115961,31.6154951 L30.7780427,31.6154951 C31.3467107,31.6154951 31.8078447,31.1544621 31.8078447,30.5856932 C31.8078447,30.0169243 31.3467107,29.5558913 30.7780427,29.5558913 Z" id="Shape"></path>
                <path d="M26.6072388,29.5558913 L6.78312233,29.5558913 C6.21445437,29.5558913 5.75332039,30.0169243 5.75332039,30.5856932 C5.75332039,31.1544621 6.21445437,31.6154951 6.78312233,31.6154951 L26.6072388,31.6154951 C27.1759068,31.6154951 27.6370408,31.1544621 27.6370408,30.5856932 C27.6370408,30.0169243 27.1759068,29.5558913 26.6072388,29.5558913 Z" id="Shape"></path>
            </g>
        </g>
    </g>
</svg>