<?xml version="1.0" encoding="UTF-8"?>
<svg width="88px" height="88px" viewBox="0 0 88 88" version="1.1" xmlns="http://www.w3.org/2000/svg" xmlns:xlink="http://www.w3.org/1999/xlink">
    <!-- Generator: Sketch 48.2 (47327) - http://www.bohemiancoding.com/sketch -->
    <title>icon / 12</title>
    <desc>Created with Sketch.</desc>
    <defs></defs>
    <g id="styleguide" stroke="none" stroke-width="1" fill="none" fill-rule="evenodd" transform="translate(-503.000000, -1790.000000)">
        <g id="icon-/-12" transform="translate(503.000000, 1790.000000)">
            <g id="icon-/-back" fill="#2AD4CE">
                <rect id="Rectangle-7-Copy" x="0" y="0" width="88" height="88" rx="44"></rect>
            </g>
            <g id="coins" transform="translate(15.000000, 23.000000)" fill="#FFFFFF" fill-rule="nonzero">
                <path d="M15.374734,25.4468816 L15.374734,21.5099262 C16.7324893,21.6068583 17.2365359,22.2275262 17.7021126,22.2275262 C18.2839068,22.2275262 18.5554175,21.4905398 18.5554175,21.1220971 C18.5554175,20.1717592 16.6936155,19.7644427 15.374734,19.7256699 L15.374734,19.202035 C15.374734,18.9692971 15.0839379,18.7560466 14.7929398,18.7560466 C14.4632699,18.7560466 14.230532,18.9692971 14.230532,19.202035 L14.230532,19.7645437 C12.3880155,19.9584078 10.5456,20.928233 10.5456,23.3718291 C10.5456,25.8541981 12.4850485,26.5524117 14.230532,27.1729786 L14.230532,31.7306019 C12.2523107,31.5755107 11.7286757,30.2179573 11.0886214,30.2179573 C10.6037592,30.2179573 10.1964427,30.8580117 10.1964427,31.3233864 C10.1964427,32.2737243 11.8255068,33.5731184 14.2304311,33.6118913 L14.2304311,34.2130718 C14.2304311,34.4459107 14.4631689,34.6591612 14.7928388,34.6591612 C15.0837359,34.6591612 15.374633,34.4459107 15.374633,34.2130718 L15.374633,33.553732 C17.4692738,33.262835 18.9043728,31.9440544 18.9043728,29.5585165 C18.9044738,26.9208544 17.0620583,26.0674485 15.374734,25.4468816 Z M14.3468505,25.0784388 C13.318967,24.6905087 12.4850485,24.2831922 12.4850485,23.1777631 C12.4850485,22.169367 13.2607068,21.6844039 14.3468505,21.548699 L14.3468505,25.0784388 Z M15.2584155,31.6918291 L15.2584155,27.5996816 C16.2088544,28.0068971 16.9651262,28.5500194 16.9651262,29.771767 C16.9651262,30.8771961 16.3056854,31.4977631 15.2584155,31.6918291 Z" id="Shape"></path>
                <path d="M50.6672854,0.0806757282 L28.2751767,0.0806757282 C27.7065087,0.0806757282 27.2453748,0.541809709 27.2453748,1.11047767 L27.2453748,19.3838835 C24.6866718,15.0941359 19.9999068,12.2142447 14.6524893,12.2142447 C6.57300194,12.2142447 0,18.7873476 0,26.866835 C0,34.9463223 6.57300194,41.5193243 14.6524893,41.5193243 C19.9999068,41.5193243 24.6866718,38.639433 27.2453748,34.3496854 L27.2453748,40.3791612 C27.2453748,40.9478291 27.7065087,41.4089631 28.2751767,41.4089631 L50.6671845,41.4089631 C51.2358524,41.4089631 51.6969864,40.9478291 51.6969864,40.3791612 L51.6969864,1.11047767 C51.6970874,0.541809709 51.2359534,0.0806757282 50.6672854,0.0806757282 Z M14.6524893,39.4596194 C7.70872233,39.4596194 2.05960388,33.810501 2.05960388,26.866734 C2.05960388,19.922967 7.70872233,14.2738485 14.6524893,14.2738485 C21.5962563,14.2738485 27.2453748,19.922967 27.2453748,26.866734 C27.2453748,33.810501 21.5962563,39.4596194 14.6524893,39.4596194 Z M49.6374835,39.3493592 L29.3050796,39.3493592 L29.3050796,34.864233 L49.6374835,34.864233 L49.6374835,39.3493592 Z M49.6374835,32.8046291 L29.3050796,32.8046291 L29.3050796,28.3194019 L49.6374835,28.3194019 L49.6374835,32.8046291 Z M49.6374835,26.2597981 L29.3050796,26.2597981 L29.3050796,21.7746718 L49.6374835,21.7746718 L49.6374835,26.2597981 Z M49.6374835,19.715068 L29.3050796,19.715068 L29.3050796,15.2298408 L49.6374835,15.2298408 L49.6374835,19.715068 Z M49.6374835,13.1702369 L29.3050796,13.1702369 L29.3050796,8.68500971 L49.6374835,8.68500971 L49.6374835,13.1702369 Z M49.6374835,6.6255068 L29.3050796,6.6255068 L29.3050796,2.14038058 L49.6374835,2.14038058 L49.6374835,6.6255068 Z" id="Shape"></path>
                <path d="M47.5777786,36.3503223 L38.6183301,36.3503223 C38.0496621,36.3503223 37.5885282,36.8114563 37.5885282,37.3801243 C37.5885282,37.9487922 38.0496621,38.4099262 38.6183301,38.4099262 L47.5777786,38.4099262 C48.1464466,38.4099262 48.6075806,37.9487922 48.6075806,37.3801243 C48.6075806,36.8114563 48.1464466,36.3503223 47.5777786,36.3503223 Z" id="Shape"></path>
                <path d="M35.425934,36.3503223 L34.9109825,36.3503223 C34.3423146,36.3503223 33.8811806,36.8114563 33.8811806,37.3801243 C33.8811806,37.9487922 34.3423146,38.4099262 34.9109825,38.4099262 L35.425934,38.4099262 C35.9946019,38.4099262 36.4557359,37.9487922 36.4557359,37.3801243 C36.4557359,36.8114563 35.9946019,36.3503223 35.425934,36.3503223 Z" id="Shape"></path>
            </g>
        </g>
    </g>
</svg>