<?xml version="1.0" encoding="UTF-8"?>
<svg width="88px" height="88px" viewBox="0 0 88 88" version="1.1" xmlns="http://www.w3.org/2000/svg" xmlns:xlink="http://www.w3.org/1999/xlink">
    <!-- Generator: Sketch 48.2 (47327) - http://www.bohemiancoding.com/sketch -->
    <title>icon / 13</title>
    <desc>Created with Sketch.</desc>
    <defs></defs>
    <g id="styleguide" stroke="none" stroke-width="1" fill="none" fill-rule="evenodd" transform="translate(-691.000000, -1226.000000)">
        <g id="icon-/-13" transform="translate(691.000000, 1226.000000)">
            <g id="icon-/-back" fill="#2AD4CE">
                <rect id="Rectangle-7-Copy" x="0" y="0" width="88" height="88" rx="44"></rect>
            </g>
            <g id="teamwork" transform="translate(18.000000, 18.000000)" fill="#FFFFFF" fill-rule="nonzero">
                <path d="M27.9716922,1.0681079 C27.3618573,0.41721875 26.5007146,0.0440436321 25.6089805,0.0440436321 C24.7172465,0.0440436321 23.8560041,0.417318396 23.2462689,1.0681079 C22.636434,1.71889741 22.3199575,2.60256014 22.3780513,3.49260024 L22.5408732,5.98833962 C22.5408732,5.98843927 22.5408732,5.98843927 22.5408732,5.98843927 C22.6053443,6.97523585 23.1262948,7.87783137 23.9345254,8.40296698 C24.4431197,8.73349351 25.0261498,8.89860731 25.6090802,8.89860731 C26.1920106,8.89860731 26.7751403,8.73339387 27.2835354,8.40306663 C28.0916663,7.87793101 28.6127164,6.9753355 28.6770879,5.98843927 L28.8399098,3.49260024 C28.8980035,2.60265979 28.5815271,1.71899705 27.9716922,1.0681079 Z M26.8118101,3.36036969 L26.6489882,5.85600943 C26.6261692,6.20626592 26.4494965,6.521148 26.1763662,6.69861792 C25.8315902,6.922523 25.3864705,6.9223237 25.0418939,6.69861792 C24.7687636,6.521148 24.5921904,6.20606663 24.5691722,5.85600943 L24.4063502,3.36036969 C24.3845277,3.02426297 24.4992205,2.70370106 24.7296026,2.45787382 C24.959885,2.21214623 25.2721763,2.076727 25.6089805,2.076727 C25.9457848,2.076727 26.2579764,2.21214623 26.4883585,2.45787382 C26.7189399,2.70370106 26.8336327,3.02426297 26.8118101,3.36036969 Z" id="Shape"></path>
                <path d="M33.647342,14.8674163 L33.3650442,13.3086504 C32.9937624,11.2595254 31.3703261,9.62413149 29.3252866,9.23899882 C29.0164829,9.18090507 28.7009033,9.15140979 28.386918,9.15140979 L27.5365371,9.15140979 C27.2669941,9.15140979 27.0085118,9.25852948 26.8178886,9.44905307 C26.4950348,9.77190684 26.0657588,9.94977535 25.6089805,9.94977535 C25.1522022,9.94977535 24.7229263,9.77190684 24.4000725,9.44905307 C24.2094493,9.25852948 23.950967,9.15140979 23.6814239,9.15140979 L22.831043,9.15140979 C22.5171574,9.15140979 22.2014782,9.18090507 21.8926745,9.23899882 C19.847635,9.62393219 18.2241987,11.2594257 17.8529169,13.3086504 L17.5706191,14.8674163 C17.5169098,15.1637642 17.5975236,15.4687812 17.7905383,15.6999605 C17.9837524,15.9311397 18.2694381,16.064865 18.5706686,16.064865 L32.6473921,16.064865 C32.9486226,16.064865 33.2343084,15.9312394 33.4273231,15.6999605 C33.6203379,15.4687812 33.7009517,15.1638638 33.647342,14.8674163 Z M19.7877476,14.0321816 L19.8531156,13.6708644 C20.075227,12.4450165 21.0461798,11.4666899 22.2690383,11.2364074 C22.4539817,11.2015313 22.6431103,11.1838939 22.8312423,11.1838939 L23.297786,11.1838939 C23.954355,11.7014564 24.7600943,11.9823591 25.6090802,11.9823591 C26.4579664,11.9823591 27.2638054,11.701556 27.9203744,11.1838939 L28.386918,11.1838939 C28.5749505,11.1838939 28.7641787,11.2015313 28.9491221,11.2364074 C30.1720802,11.4666899 31.1428337,12.4450165 31.3650448,13.6708644 L31.4305124,14.0321816 L19.7877476,14.0321816 Z" id="Shape"></path>
                <path d="M27.9716922,35.9776686 C27.3618573,35.3267795 26.5007146,34.9536044 25.6089805,34.9536044 C24.7172465,34.9536044 23.8560041,35.3268791 23.2462689,35.9776686 C22.636434,36.6285578 22.3199575,37.5122205 22.3780513,38.402161 L22.5408732,40.898 C22.6053443,41.8848962 23.1263945,42.7874917 23.9344257,43.3125277 C24.4432193,43.6430542 25.0260501,43.808168 25.6090802,43.808168 C26.191911,43.808168 26.7751403,43.6429546 27.2835354,43.3125277 C28.0915666,42.7874917 28.6127164,41.8847966 28.6770879,40.8979004 L28.8399098,38.4020613 C28.8980035,37.5122205 28.5815271,36.6285578 27.9716922,35.9776686 Z M26.8118101,38.2697311 L26.6489882,40.7654705 C26.6261692,41.1156274 26.4494965,41.4305094 26.1762665,41.6079794 C25.8315902,41.8318844 25.3864705,41.8318844 25.0418939,41.6079794 C24.7687636,41.4305094 24.5921904,41.1155277 24.5691722,40.7654705 L24.4063502,38.2698308 C24.3845277,37.9336244 24.4992205,37.6130625 24.7296026,37.3673349 C24.9597854,37.1216073 25.2721763,36.9861881 25.6089805,36.9861881 C25.9457848,36.9861881 26.2580761,37.1216073 26.4883585,37.3673349 C26.7189399,37.6130625 26.8336327,37.9336244 26.8118101,38.2697311 Z" id="Shape"></path>
                <path d="M33.6472423,49.776977 L33.3649446,48.2182111 C32.9936627,46.1690861 31.3702264,44.5336922 29.3251869,44.1485596 C29.0166822,44.0904658 28.7010029,44.0609705 28.3868184,44.0609705 L27.5364375,44.0609705 C27.2668945,44.0609705 27.0084121,44.1680902 26.8177889,44.3586138 C26.1511557,45.0253467 25.0667058,45.0252471 24.4000725,44.3586138 C24.2094493,44.1680902 23.950967,44.0609705 23.6814239,44.0609705 L22.831043,44.0609705 C22.5173567,44.0609705 22.2016775,44.0904658 21.8926745,44.1485596 C19.847635,44.5336922 18.2241987,46.1690861 17.8529169,48.2183107 L17.5706191,49.7770767 C17.5169098,50.0734245 17.5975236,50.3784416 17.7905383,50.6096209 C17.9837524,50.8408001 18.2694381,50.9744257 18.5706686,50.9744257 L32.6473921,50.9744257 C32.9486226,50.9744257 33.2343084,50.8408001 33.4272235,50.6094216 C33.6202382,50.378342 33.700852,50.0734245 33.6472423,49.776977 Z M19.7877476,48.941842 L19.8530159,48.5806244 C20.075227,47.3547765 21.0460802,46.3764499 22.2686397,46.1461675 C22.4537824,46.1112913 22.6430106,46.0936539 22.831043,46.0936539 L23.2981846,46.0936539 C24.6493874,47.1558827 26.5688726,47.1558827 27.9198762,46.0936539 L28.3870177,46.0936539 C28.5751498,46.0936539 28.7643779,46.1112913 28.9492217,46.1460678 C30.1721798,46.3763502 31.1429334,47.3546769 31.3651445,48.5805248 L31.430612,48.941842 L19.7877476,48.941842 Z" id="Shape"></path>
                <path d="M10.5170613,18.5231374 C9.90722642,17.8722482 9.04608373,17.4989735 8.15425,17.4989735 C7.26241627,17.4989735 6.40107429,17.8722482 5.79133903,18.5231374 C5.18160377,19.1739269 4.865227,20.0575896 4.92332075,20.9474304 L5.08614269,23.4431698 C5.15051415,24.4299664 5.67146462,25.3326616 6.47969517,25.8577972 C6.98838915,26.1882241 7.57141922,26.3534375 8.15434965,26.3534375 C8.73728007,26.3534375 9.32040979,26.1882241 9.82880483,25.8578968 C10.6370354,25.3327612 11.1579858,24.430066 11.2222577,23.4433691 L11.3850796,20.9475301 C11.4430737,20.0576893 11.1266969,19.1738272 10.5170613,18.5231374 Z M9.35697995,20.8151002 L9.19415802,23.3109393 C9.17143868,23.6610961 8.99476592,23.9758785 8.72153597,24.1533485 C8.37685967,24.3772535 7.93173998,24.3772535 7.58716333,24.1533485 C7.31393337,23.9757789 7.13736026,23.6608968 7.11444163,23.3109393 L6.95161969,20.8151002 C6.92969752,20.4789935 7.04448998,20.1584316 7.27477241,19.912704 C7.50505483,19.6668768 7.81744575,19.5314575 8.15425,19.5314575 C8.49105425,19.5314575 8.80334552,19.6669764 9.03362795,19.912704 C9.26391038,20.1584316 9.37890212,20.4789935 9.35697995,20.8151002 Z" id="Shape"></path>
                <path d="M16.1924121,32.3221468 L15.9101144,30.7633809 C15.5388325,28.7142559 13.9153962,27.078862 11.8703567,26.6937294 C11.5617524,26.6356356 11.2460731,26.6061403 10.9318886,26.6061403 L10.0815077,26.6061403 C9.81206427,26.6061403 9.5536816,26.71326 9.36295873,26.9037836 C8.69632547,27.5704169 7.61187559,27.5705165 6.94524233,26.9037836 C6.7546191,26.71326 6.49613679,26.6061403 6.22659375,26.6061403 L5.37611321,26.6061403 C5.06242689,26.6061403 4.746648,26.6356356 4.43784434,26.6937294 C2.39280483,27.078862 0.769368514,28.7142559 0.398086675,30.7633809 L0.115788915,32.3221468 C0.0620795991,32.6184947 0.142693396,32.9235118 0.335708137,33.154691 C0.52892217,33.3858703 0.814607901,33.5194959 1.11583844,33.5194959 L15.1925619,33.5194959 C15.4937925,33.5194959 15.7794782,33.3858703 15.9723933,33.154691 C16.1655077,32.9235118 16.2461215,32.618694 16.1924121,32.3221468 Z M2.3330171,31.4870118 L2.39838502,31.1256946 C2.62059611,29.8999463 3.59144929,28.92152 4.81430778,28.6912376 C4.99925118,28.6563614 5.18837972,28.6387241 5.37641215,28.6387241 L5.84315507,28.6387241 C6.49972406,29.1562866 7.30556309,29.4370896 8.15444929,29.4370896 C9.0033355,29.4370896 9.80917453,29.1562866 10.4657435,28.6387241 L10.9322871,28.6387241 C11.1203196,28.6387241 11.3094481,28.6563614 11.4943915,28.6912376 C12.7173496,28.92152 13.6881032,29.8999463 13.9103143,31.1256946 L13.9757818,31.4870118 L2.3330171,31.4870118 Z" id="Shape"></path>
                <path d="M45.4264228,18.5229381 C44.8165879,17.8720489 43.9554452,17.4988738 43.0637111,17.4988738 C42.1718774,17.4988738 41.310635,17.8721486 40.7008998,18.5230377 C40.0911645,19.1738272 39.7747877,20.0575896 39.8328815,20.9474304 L39.9957034,23.4431698 C40.0600749,24.4299664 40.5809257,25.3326616 41.3891562,25.8577972 C41.8979499,26.1883237 42.4807807,26.3534375 43.0638107,26.3534375 C43.6466415,26.3534375 44.2298709,26.1882241 44.7382659,25.8577972 C45.5464965,25.3326616 46.0675466,24.4299664 46.1318184,23.4431698 L46.2946403,20.9473308 C46.3527341,20.0573903 46.0362577,19.1737276 45.4264228,18.5229381 Z M44.2665407,20.8150006 L44.1037187,23.3108396 C44.0809994,23.6608968 43.904227,23.9757789 43.6309971,24.1532488 C43.2866197,24.3770542 42.8414004,24.3771539 42.4966244,24.1532488 C42.2234941,23.9757789 42.046921,23.6608968 42.0240024,23.3108396 L41.8611804,20.8150006 C41.8392583,20.4788939 41.9541504,20.158332 42.1843331,19.9126044 C42.4145159,19.6668768 42.7269068,19.5314575 43.0637111,19.5314575 C43.400615,19.5314575 43.7129062,19.6668768 43.943089,19.9126044 C44.1736704,20.158332 44.2883632,20.4788939 44.2665407,20.8150006 Z" id="Shape"></path>
                <path d="M51.1019729,32.3221468 L50.8196751,30.7633809 C50.4483933,28.7142559 48.824957,27.078862 46.7799175,26.6937294 C46.4711138,26.6356356 46.1555342,26.6061403 45.8415489,26.6061403 L44.9910684,26.6061403 C44.721625,26.6061403 44.4632423,26.71326 44.2725195,26.9037836 C43.6058862,27.5704169 42.5214363,27.5705165 41.8548031,26.9037836 C41.6641798,26.71326 41.4056975,26.6061403 41.1361545,26.6061403 L40.2857736,26.6061403 C39.9717883,26.6061403 39.6561091,26.6356356 39.3475047,26.6937294 C37.3023656,27.078862 35.6789292,28.7142559 35.3076474,30.7633809 L35.0253496,32.3221468 C34.9716403,32.6184947 35.0522541,32.9235118 35.2452689,33.154691 C35.4384829,33.3858703 35.7241686,33.5194959 36.0253992,33.5194959 L50.1021226,33.5194959 C50.4033532,33.5194959 50.6890389,33.3858703 50.881954,33.154691 C51.0750684,32.9235118 51.1555825,32.618694 51.1019729,32.3221468 Z M37.2424782,31.4870118 L37.3079458,31.1256946 C37.5300572,29.8999463 38.5009104,28.92152 39.7239682,28.6912376 C39.9088119,28.6563614 40.0978408,28.6387241 40.2859729,28.6387241 L40.7525165,28.6387241 C41.4090855,29.1562866 42.2149245,29.4370896 43.0638107,29.4370896 C43.9126969,29.4370896 44.718536,29.1562866 45.375105,28.6387241 L45.8417482,28.6387241 C46.029681,28.6387241 46.2189092,28.6563614 46.4038526,28.6912376 C47.6268107,28.92152 48.5975643,29.8999463 48.8197754,31.1256946 L48.8852429,31.4870118 L37.2424782,31.4870118 Z" id="Shape"></path>
                <path d="M20.3302217,6.59937028 C20.1503603,6.06775767 19.5736079,5.78257017 19.0416963,5.96233196 C15.0162877,7.32419693 11.4307176,9.98584729 8.94554068,13.4567246 C8.61890035,13.9131044 8.72392748,14.5480501 9.18030719,14.8747901 C9.35957075,15.0031344 9.56633667,15.0648154 9.77110967,15.0648154 C10.0877854,15.0648154 10.399977,14.9171397 10.598273,14.6400236 C12.8377223,11.5123278 16.0676551,9.11434139 19.6931834,7.88769634 C20.2249953,7.70783491 20.5101828,7.1309829 20.3302217,6.59937028 Z" id="Shape"></path>
                <path d="M42.3033107,13.4567246 C40.5538219,11.0131999 38.2452182,8.94723467 35.6267146,7.48223585 C35.1371527,7.20830837 34.5176521,7.38308785 34.243625,7.8729487 C33.9694982,8.36280955 34.1445767,8.9820112 34.6343379,9.25613797 C36.9935619,10.5762512 39.0739758,12.4380413 40.6506781,14.6400236 C40.8490737,14.9172394 41.1611657,15.0648154 41.477941,15.0648154 C41.6826144,15.0648154 41.8893803,15.0031344 42.0685442,14.8746904 C42.5251232,14.5479505 42.6300507,13.9130047 42.3033107,13.4567246 Z" id="Shape"></path>
                <path d="M32.7314935,6.14767394 C32.558707,6.084 32.3823331,6.02152182 32.2071551,5.96233196 C31.6753432,5.78217158 31.0986904,6.06765802 30.9186297,6.59927064 C30.7388679,7.13088325 31.0240554,7.70773526 31.555668,7.88769634 C31.7133084,7.94100708 31.8721445,7.99720755 32.0276922,8.05470342 C32.1438797,8.0975513 32.262658,8.11787913 32.379543,8.11787913 C32.7929752,8.11787913 33.1815955,7.8636816 33.3329581,7.45313915 C33.5273679,6.92650884 33.2581238,6.34208373 32.7314935,6.14767394 Z" id="Shape"></path>
                <path d="M19.693283,42.071135 C16.0677547,40.8446893 12.8378219,38.4466032 10.5983726,35.3188078 C10.271533,34.8625277 9.63668691,34.7574009 9.18040684,35.0841409 C8.72392748,35.4109805 8.61890035,36.0458267 8.94564033,36.5022064 C11.4308172,39.9731834 15.016487,42.6347341 19.041796,43.9965991 C19.1498125,44.0330696 19.2596226,44.0505077 19.3676392,44.0505077 C19.7914346,44.0505077 20.1869304,43.7832565 20.3303213,43.3595607 C20.5101828,42.8279481 20.2249953,42.2510961 19.693283,42.071135 Z" id="Shape"></path>
                <path d="M42.0686439,35.0843402 C41.6122642,34.7576002 40.9773184,34.8628267 40.6506781,35.3190071 C38.4112288,38.4468025 35.181296,40.8447889 31.5557677,42.0712347 C31.0240554,42.2510961 30.7388679,42.8279481 30.9187294,43.3596604 C31.0620206,43.7833561 31.4576162,44.0505077 31.8814116,44.0505077 C31.9893284,44.0505077 32.0992382,44.0331692 32.2071551,43.9966987 C36.2908567,42.6151038 39.7820619,40.0236044 42.3034104,36.502306 C42.6300507,36.0459263 42.5251232,35.4110802 42.0686439,35.0843402 Z" id="Shape"></path>
            </g>
        </g>
    </g>
</svg>