<?xml version="1.0" encoding="UTF-8"?>
<svg width="88px" height="88px" viewBox="0 0 88 88" version="1.1" xmlns="http://www.w3.org/2000/svg" xmlns:xlink="http://www.w3.org/1999/xlink">
    <!-- Generator: Sketch 48.2 (47327) - http://www.bohemiancoding.com/sketch -->
    <title>icon / 14</title>
    <desc>Created with Sketch.</desc>
    <defs></defs>
    <g id="styleguide" stroke="none" stroke-width="1" fill="none" fill-rule="evenodd" transform="translate(-691.000000, -1414.000000)">
        <g id="icon-/-14" transform="translate(691.000000, 1414.000000)">
            <g id="icon-/-back" fill="#2AD4CE">
                <rect id="Rectangle-7-Copy" x="0" y="0" width="88" height="88" rx="44"></rect>
            </g>
            <g id="credit-card" transform="translate(20.000000, 20.000000)" fill="#FFFFFF" fill-rule="nonzero">
                <path d="M47.6992988,16.8156133 L32.183334,1.29983984 C31.3457402,0.462341797 30.2287891,0.00105273437 29.0380508,0.00105273437 C27.8474082,0.00105273437 26.7303613,0.462150391 25.8927676,1.29964844 L1.29878711,25.8937246 C0.461289063,26.7313184 0,27.8481738 0,29.0389121 C0,30.2296504 0.461289063,31.3466973 1.29878711,32.1840996 L3.21208398,34.0973965 C3.21227539,34.0974922 3.21237109,34.0976836 3.2125625,34.097875 C3.21275391,34.0980664 3.21294531,34.0982578 3.21313672,34.0984492 L16.0718086,46.9571211 L14.2913477,46.9571211 C13.7276563,46.9571211 13.2705781,47.4141035 13.2705781,47.9778906 C13.2705781,48.541582 13.7276563,48.9986602 14.2913477,48.9986602 L19.9559199,48.9986602 C19.9572598,48.9986602 19.9585039,48.9987559 19.9598438,48.9987559 C19.9611836,48.9987559 19.9624277,48.9986602 19.9637676,48.9986602 L34.7071211,48.9988516 C35.2708125,48.9988516 35.7278906,48.5417734 35.7278906,47.978082 C35.7278906,47.4142949 35.2708125,46.9573125 34.7071211,46.9573125 L23.8482617,46.9571211 L47.6993945,23.1059883 C49.4335352,21.3716562 49.4335352,18.5497539 47.6992988,16.8156133 Z M46.2557129,21.6624023 L21.661541,46.2565742 C21.2104922,46.7075273 20.6075625,46.9561641 19.9635762,46.9571211 L19.9558242,46.9571211 C19.3120293,46.9560684 18.709291,46.7075273 18.2584336,46.2565742 L5.37803711,33.376082 L28.9970898,9.75683789 C29.3956934,9.35823437 29.3956934,8.71185547 28.9970898,8.31325195 C28.5983906,7.91464844 27.9522031,7.91464844 27.5534082,8.31334766 L3.93435547,31.9325918 L2.74227734,30.7405137 C2.29046289,30.2886992 2.04163477,29.6844297 2.04163477,29.0390078 C2.04163477,28.3935859 2.29046289,27.7892207 2.74237305,27.3373105 L27.3363535,2.74333008 C27.7882637,2.29151562 28.3926289,2.0426875 29.0380508,2.0426875 C29.6834727,2.0426875 30.2878379,2.29151562 30.739748,2.74342578 L36.2621055,8.2656875 L12.6427656,31.8852187 C12.2441621,32.2837266 12.2441621,32.9301055 12.6427656,33.3289004 C12.8421152,33.5281543 13.1033848,33.6277812 13.3645586,33.6277812 C13.6257324,33.6277812 13.887002,33.5280586 14.0863516,33.3288047 L37.7056914,9.70936914 L46.2557129,18.2591035 C47.1938906,19.197377 47.1937949,20.7241289 46.2557129,21.6624023 Z" id="Shape"></path>
                <path d="M25.150877,29.4826875 C24.7522734,29.084084 24.1060859,29.0841797 23.7071953,29.4826875 L15.6744492,37.5153379 C15.2758457,37.9139414 15.2758457,38.5602246 15.6744492,38.9590195 C15.8737988,39.1583691 16.1350684,39.2579961 16.3962422,39.2579961 C16.657416,39.2579961 16.9186855,39.1582734 17.1180352,38.9590195 L25.1507812,30.9263691 C25.5494805,30.5275742 25.5494805,29.881291 25.150877,29.4826875 Z" id="Shape"></path>
                <path d="M21.8562012,37.1080254 L18.5616211,40.4026055 C18.1630176,40.801209 18.1630176,41.4475879 18.5616211,41.8462871 C18.7609707,42.045541 19.0222402,42.1452637 19.2834141,42.1452637 C19.5447793,42.1452637 19.8058574,42.045541 20.005207,41.8462871 L23.2997871,38.551707 C23.6983906,38.1531035 23.6983906,37.5067246 23.2997871,37.1080254 C22.9011836,36.7093262 22.2550918,36.7093262 21.8562012,37.1080254 Z" id="Shape"></path>
                <path d="M24.8879805,34.0765332 L24.4549238,34.5094941 C24.0562246,34.9080977 24.0562246,35.5543809 24.4548281,35.9531758 C24.654082,36.1525254 24.9154473,36.252248 25.1766211,36.252248 C25.4377949,36.252248 25.6990645,36.1525254 25.8983184,35.9531758 L26.331375,35.5202148 C26.7300742,35.1216113 26.7300742,34.4753281 26.3314707,34.0766289 C25.9330586,33.6780254 25.286584,33.6779297 24.8879805,34.0765332 Z" id="Shape"></path>
                <path d="M38.9581582,15.675502 C38.766752,15.4840957 38.5071094,15.3765254 38.2363652,15.3765254 C37.9656211,15.3765254 37.7060742,15.4840957 37.5145723,15.675502 L33.1835273,20.0064512 C32.9921211,20.1979531 32.8845508,20.4575 32.8845508,20.7282441 C32.8845508,20.9989883 32.9921211,21.2586309 33.1835273,21.4500371 L36.0708906,24.3371133 C36.2702402,24.5364629 36.5315098,24.6360898 36.7926836,24.6360898 C37.0540488,24.6360898 37.315127,24.5363672 37.5144766,24.3371133 L41.8453301,20.0063555 C42.2439336,19.607752 42.2439336,18.961373 41.8453301,18.5627695 L38.9581582,15.675502 Z M36.7925879,22.1718301 L35.3489063,20.7282441 L38.2362695,17.8409766 L39.6798555,19.2846582 L36.7925879,22.1718301 Z" id="Shape"></path>
                <path d="M30.6574434,7.67405078 C30.9188086,7.67405078 31.1800781,7.57432812 31.379332,7.37488281 L31.8123887,6.94163477 C32.2108965,6.54293555 32.2108008,5.89655664 31.8121016,5.49804883 C31.413498,5.09954102 30.7670234,5.09963672 30.3685156,5.49833594 L29.935459,5.93158398 C29.5369512,6.3302832 29.5370469,6.97666211 29.9357461,7.37516992 C30.1350957,7.57451953 30.3961738,7.67405078 30.6574434,7.67405078 Z" id="Shape"></path>
                <path d="M10.2608105,34.2671738 L9.82775391,34.7002305 C9.42915039,35.0987383 9.42915039,35.7451172 9.82775391,36.1439121 C10.0271035,36.343166 10.288373,36.442793 10.5495469,36.442793 C10.8107207,36.442793 11.0719902,36.343166 11.2713398,36.1439121 L11.7043965,35.7108555 C12.103,35.3121562 12.103,34.6657773 11.7043965,34.2671738 C11.3056973,33.8684746 10.6595098,33.8684746 10.2608105,34.2671738 Z" id="Shape"></path>
            </g>
        </g>
    </g>
</svg>