<?xml version="1.0" encoding="UTF-8"?>
<svg width="88px" height="88px" viewBox="0 0 88 88" version="1.1" xmlns="http://www.w3.org/2000/svg" xmlns:xlink="http://www.w3.org/1999/xlink">
    <!-- Generator: Sketch 48.2 (47327) - http://www.bohemiancoding.com/sketch -->
    <title>icon / 15</title>
    <desc>Created with Sketch.</desc>
    <defs></defs>
    <g id="styleguide" stroke="none" stroke-width="1" fill="none" fill-rule="evenodd" transform="translate(-691.000000, -1602.000000)">
        <g id="icon-/-15" transform="translate(691.000000, 1602.000000)">
            <g id="icon-/-back" fill="#2AD4CE">
                <rect id="Rectangle-7-Copy" x="0" y="0" width="88" height="88" rx="44"></rect>
            </g>
            <g id="wallet-(2)" transform="translate(19.000000, 25.000000)" fill="#FFFFFF" fill-rule="nonzero">
                <path d="M34.8638672,3.80917969 L5.89941406,3.80917969 C5.34931641,3.80917969 4.90341797,4.25517578 4.90341797,4.80517578 C4.90341797,5.35517578 5.34941406,5.80117187 5.89941406,5.80117187 L34.8638672,5.80117187 C35.4138672,5.80117187 35.8598633,5.35517578 35.8598633,4.80517578 C35.8598633,4.25517578 35.4138672,3.80917969 34.8638672,3.80917969 Z" id="Shape"></path>
                <path d="M40.9954102,3.80917969 L39.7410156,3.80917969 C39.1910156,3.80917969 38.7450195,4.25517578 38.7450195,4.80517578 C38.7450195,5.35517578 39.1910156,5.80117187 39.7410156,5.80117187 L40.9954102,5.80117187 C41.5454102,5.80117187 41.9914062,5.35517578 41.9914062,4.80517578 C41.9914062,4.25517578 41.5454102,3.80917969 40.9954102,3.80917969 Z" id="Shape"></path>
                <path d="M49.0040039,16.2246094 L47.6052734,16.2246094 L47.6052734,3.721875 C47.6052734,1.69501953 45.95625,0.04609375 43.9295898,0.04609375 L4.81611328,0.04609375 C2.16044922,0.04609375 0,2.20654297 0,4.86210937 C0,4.87490234 0.00087890625,4.88730469 0.0009765625,4.90009766 C0.00078125,4.90654297 0,4.91279297 0,4.91923828 L0,32.0021484 C0,35.2236328 2.62089844,37.8445312 5.84238281,37.8445312 L46.6091797,37.8445312 C47.1591797,37.8445312 47.6051758,37.3985352 47.6051758,36.8485352 L47.6051758,29.0782227 L49.0039063,29.0782227 C49.5539063,29.0782227 49.9999023,28.6322266 49.9999023,28.0822266 L49.9999023,17.2206055 C50,16.6706055 49.5540039,16.2246094 49.0040039,16.2246094 Z M4.81611328,2.03808594 L43.9295898,2.03808594 C44.8580078,2.03808594 45.6132812,2.79345703 45.6132812,3.721875 L45.6132812,7.68642578 L4.81611328,7.68642578 C3.25898437,7.68642578 1.99199219,6.41953125 1.99199219,4.86220703 C1.99199219,3.30498047 3.25898437,2.03808594 4.81611328,2.03808594 Z M45.6132812,35.8524414 L5.84238281,35.8524414 C3.71923828,35.8524414 1.99199219,34.1251953 1.99199219,32.0020508 L1.99199219,8.75996094 C2.78603516,9.33681641 3.76171875,9.67841797 4.81611328,9.67841797 L45.6132812,9.67841797 L45.6132812,16.2246094 L39.9526367,16.2246094 C36.4088867,16.2246094 33.5258789,19.1077148 33.5258789,22.6513672 C33.5258789,26.1950195 36.4089844,29.078125 39.9526367,29.078125 L45.6132812,29.078125 L45.6132812,35.8524414 Z M48.0080078,27.0861328 L39.9526367,27.0861328 C37.5072266,27.0861328 35.5178711,25.0966797 35.5178711,22.6513672 C35.5178711,20.2060547 37.5073242,18.2166016 39.9526367,18.2166016 L48.0080078,18.2166016 L48.0080078,27.0861328 Z" id="Shape"></path>
                <path d="M40.2023437,19.7417969 C38.5979492,19.7417969 37.2928711,21.0470703 37.2928711,22.6513672 C37.2928711,24.2556641 38.5980469,25.5609375 40.2023437,25.5609375 C41.8066406,25.5609375 43.1119141,24.2557617 43.1119141,22.6513672 C43.1118164,21.0469727 41.8066406,19.7417969 40.2023437,19.7417969 Z M40.2023437,23.5689453 C39.6964844,23.5689453 39.2848633,23.1573242 39.2848633,22.6513672 C39.2848633,22.1454102 39.6963867,21.7337891 40.2023437,21.7337891 C40.7082031,21.7337891 41.1199219,22.1454102 41.1199219,22.6513672 C41.1199219,23.1573242 40.7082031,23.5689453 40.2023437,23.5689453 Z" id="Shape"></path>
            </g>
            <g id="wallet" transform="translate(29.000000, 38.000000)" fill="#FFFFFF" fill-rule="nonzero">
                <path d="M12.7163672,12.6832734 C12.7163672,15.0623448 10.7885655,16.9903702 8.40925781,16.9910938 L6.98864844,16.9910938 L6.98864844,17.7946094 C6.98864844,18.3297593 6.55579434,18.7628516 6.02101562,18.7628516 C5.48633896,18.7628516 5.05277344,18.329252 5.05277344,17.7946094 L5.05277344,16.9910938 L4.30882031,16.9910938 L4.30882031,17.7946094 C4.30882031,18.3291524 3.87464372,18.76275 3.33986719,18.76275 C2.80525833,18.76275 2.371625,18.3291167 2.371625,17.7945078 L2.371625,16.9909922 L1.63178906,16.9909922 C1.09697758,16.9909922 0.663546875,16.5577657 0.663546875,16.02275 C0.663546875,15.4877343 1.09697758,15.0545078 1.63178906,15.0545078 L2.371625,15.0545078 L2.371625,4.12942188 L1.63178906,4.12942188 C1.09697758,4.12942188 0.663546875,3.69619539 0.663546875,3.16117969 C0.663546875,2.62616398 1.09697758,2.1929375 1.63178906,2.1929375 L2.37284375,2.1929375 L2.37284375,1.4391875 C2.37284375,0.904138053 2.80620666,0.470945313 3.34108594,0.470945313 C3.8757626,0.470945313 4.30932812,0.904544886 4.30932812,1.4391875 L4.30932812,2.1929375 L5.05328125,2.1929375 L5.05328125,1.4391875 C5.05328125,0.904171793 5.48671195,0.470945313 6.02152344,0.470945313 C6.55603194,0.470945313 6.98915625,0.904478165 6.98915625,1.4391875 L6.98915625,2.1929375 L7.91527512,2.1929375 C10.1571734,2.193455 11.9748368,4.01028653 11.9760781,6.25308071 C11.9755895,7.33605339 11.5477134,8.35012391 10.8006187,9.10525432 C11.9868126,9.89868147 12.7162687,11.2279376 12.7163672,12.6832734 Z M4.30882031,4.1288125 L4.30882031,8.37606255 L7.91588132,8.37606255 C8.48908898,8.37539437 9.0180882,8.15136149 9.41766862,7.753703 C9.81588401,7.35417137 10.0402031,6.82502213 10.0402031,6.25233594 C10.0402031,5.67949506 9.81575684,5.14976388 9.41788403,4.7506763 C9.01815606,4.35287059 8.48858052,4.1288125 7.91596875,4.1288125 L4.30882031,4.1288125 Z M10.7802891,12.6833296 C10.7798102,12.0437732 10.5296111,11.4524028 10.0865163,11.0072775 C9.64131942,10.563299 9.04927754,10.3126484 8.40976562,10.3126484 L4.30882031,10.3126484 L4.30882031,15.0545079 L8.40968701,15.0545079 C9.04964272,15.053837 9.64149533,14.8034298 10.0864313,14.3599634 C10.5293411,13.915178 10.7796183,13.3230944 10.7802891,12.6833296 Z" id="Shape"></path>
            </g>
        </g>
    </g>
</svg>