<?xml version="1.0" encoding="UTF-8"?>
<svg width="88px" height="88px" viewBox="0 0 88 88" version="1.1" xmlns="http://www.w3.org/2000/svg" xmlns:xlink="http://www.w3.org/1999/xlink">
    <!-- Generator: Sketch 48.2 (47327) - http://www.bohemiancoding.com/sketch -->
    <title>icon / 16</title>
    <desc>Created with Sketch.</desc>
    <defs></defs>
    <g id="styleguide" stroke="none" stroke-width="1" fill="none" fill-rule="evenodd" transform="translate(-691.000000, -1790.000000)">
        <g id="icon-/-16" transform="translate(691.000000, 1790.000000)">
            <g id="icon-/-back" fill="#2AD4CE">
                <rect id="Rectangle-7-Copy" x="0" y="0" width="88" height="88" rx="44"></rect>
            </g>
            <g id="Group" transform="translate(41.000000, 18.000000)" fill="#FFFFFF" fill-rule="nonzero">
                <g id="coins">
                    <path d="M14.3700008,28.7000008 C6.4573537,28.7000008 0.0200004578,22.2626475 0.0200004578,14.3500004 C0.0200004578,6.43735324 6.4573537,2.84217094e-14 14.3700008,2.84217094e-14 C22.282648,2.84217094e-14 28.7200012,6.43735324 28.7200012,14.3500004 C28.7200012,22.2626475 22.282648,28.7000008 14.3700008,28.7000008 Z M14.3707107,26.7007806 C21.1809437,26.7007806 26.7214252,21.160299 26.7214252,14.350066 C26.7214252,7.53983301 21.1809437,1.99935146 14.3707107,1.99935146 C7.56047767,1.99935146 2.01999612,7.53983301 2.01999612,14.350066 C2.01999612,21.160299 7.56047767,26.7007806 14.3707107,26.7007806 Z" id="Shape"></path>
                </g>
                <g id="wallet" transform="translate(9.000000, 6.500000)">
                    <path d="M10.8218307,10.6749334 C10.8218307,12.708613 9.17389625,14.3567386 7.14000021,14.3573572 L6.0418664,14.3573572 L6.0418664,14.9405065 C6.0418664,15.4353707 5.64151176,15.8359457 5.14693581,15.8359457 C4.65245424,15.8359457 4.25149666,15.4349566 4.25149666,14.9405065 L4.25149666,14.3573572 L3.80546422,14.3573572 L3.80546422,14.9405065 C3.80546422,15.4349011 3.40396906,15.8358609 2.90943178,15.8358609 C2.41500834,15.8358609 2.01399264,15.4348452 2.01399264,14.9404218 L2.01399264,14.3572724 L1.48398602,14.3572724 C0.9894027,14.3572724 0.588546875,13.9566055 0.588546875,13.4618333 C0.588546875,12.9670611 0.9894027,12.5663941 1.48398602,12.5663941 L2.01399264,12.5663941 L2.01399264,3.62388109 L1.48398602,3.62388109 C0.9894027,3.62388109 0.588546875,3.22321414 0.588546875,2.72844195 C0.588546875,2.23366976 0.9894027,1.83300281 1.48398602,1.83300281 L2.01500972,1.83300281 L2.01500972,1.29138445 C2.01500972,0.796585643 2.41580744,0.395945313 2.91044887,0.395945313 C3.40493043,0.395945313 3.80588801,0.796934382 3.80588801,1.29138445 L3.80588801,1.83300281 L4.25192045,1.83300281 L4.25192045,1.29138445 C4.25192045,0.796612263 4.65277627,0.395945313 5.14735959,0.395945313 C5.64171774,0.395945313 6.04229019,0.796895603 6.04229019,1.29138445 L6.04229019,1.83300281 L6.72777605,1.83300281 C8.64695767,1.83344581 10.2029731,3.38874922 10.2040358,5.30877157 C10.2036335,6.2004124 9.86473508,7.03763937 9.26993406,7.67535525 C10.2331449,8.35928056 10.8217489,9.46627858 10.8218307,10.6749334 Z M3.80546422,3.62337255 L3.80546422,6.99301825 L6.72815987,6.99301825 C7.18317233,6.99248785 7.6025989,6.81485934 7.91964107,6.49934316 C8.23583134,6.18210776 8.41366607,5.76261113 8.41366607,5.30811059 C8.41366607,4.85347645 8.23572288,4.43350044 7.92007188,4.11688472 C7.60267558,3.80101475 7.18280694,3.62337255 6.72833473,3.62337255 L3.80546422,3.62337255 Z M9.03129147,10.6750457 C9.03090934,10.1646727 8.83144369,9.69321587 8.47800244,9.33815414 C8.12267248,8.98379658 7.65070432,8.78398119 7.14042399,8.78398119 L3.80546422,8.78398119 L3.80546422,12.5663942 L7.14026676,12.5663942 C7.65092203,12.5658589 8.12272276,12.3662681 8.4778325,12.0123905 C8.8312608,11.657406 9.03075626,11.1854017 9.03129147,10.6750457 Z" id="Shape"></path>
                </g>
            </g>
            <g id="Group-4" transform="translate(28.000000, 28.000000)" fill="#FFFFFF" fill-rule="nonzero">
                <path d="M9.10056423,2.35605053 L3.60352901,2.35605053 C3.05352901,2.35605053 2.60753292,2.80204662 2.60753292,3.35204662 C2.60753292,3.90204662 3.05352901,4.34804272 3.60352901,4.34804272 L9.10056423,4.34804272 C9.65056423,4.34804272 10.0965603,3.90204662 10.0965603,3.35204662 C10.0965603,2.80204662 9.65056423,2.35605053 9.10056423,2.35605053 Z" id="Shape" transform="translate(6.352047, 3.352047) rotate(-45.000000) translate(-6.352047, -3.352047) "></path>
                <path d="M2.47924389,6.85605053 L1.22484936,6.85605053 C0.674849358,6.85605053 0.228853264,7.30204662 0.228853264,7.85204662 C0.228853264,8.40204662 0.674849358,8.84804272 1.22484936,8.84804272 L2.47924389,8.84804272 C3.02924389,8.84804272 3.47523998,8.40204662 3.47523998,7.85204662 C3.47523998,7.30204662 3.02924389,6.85605053 2.47924389,6.85605053 Z" id="Shape" transform="translate(1.852047, 7.852047) rotate(-45.000000) translate(-1.852047, -7.852047) "></path>
            </g>
            <g id="Group-3" transform="translate(50.000000, 50.000000)" fill="#FFFFFF" fill-rule="nonzero">
                <path d="M8.62719727,0.85605053 L7.37280273,0.85605053 C6.82280273,0.85605053 6.37680664,1.30204662 6.37680664,1.85204662 C6.37680664,2.40204662 6.82280273,2.84804272 7.37280273,2.84804272 L8.62719727,2.84804272 C9.17719727,2.84804272 9.62319336,2.40204662 9.62319336,1.85204662 C9.62319336,1.30204662 9.17719727,0.85605053 8.62719727,0.85605053 Z" id="Shape" transform="translate(8.000000, 1.852047) rotate(-45.000000) translate(-8.000000, -1.852047) "></path>
                <path d="M6.24851761,5.35605053 L0.751482391,5.35605053 C0.201482391,5.35605053 -0.244513703,5.80204662 -0.244513703,6.35204662 C-0.244513703,6.90204662 0.201482391,7.34804272 0.751482391,7.34804272 L6.24851761,7.34804272 C6.79851761,7.34804272 7.2445137,6.90204662 7.2445137,6.35204662 C7.2445137,5.80204662 6.79851761,5.35605053 6.24851761,5.35605053 Z" id="Shape" transform="translate(3.500000, 6.352047) rotate(-45.000000) translate(-3.500000, -6.352047) "></path>
            </g>
            <g id="coins" transform="translate(18.000000, 41.000000)" fill="#FFFFFF" fill-rule="nonzero">
                <path d="M14.3500004,28.7000008 C6.43735324,28.7000008 0,22.2626475 0,14.3500004 C0,6.43735324 6.43735324,0 14.3500004,0 C22.2626475,0 28.7000008,6.43735324 28.7000008,14.3500004 C28.7000008,22.2626475 22.2626475,28.7000008 14.3500004,28.7000008 Z M14.3507102,26.7007806 C21.1609432,26.7007806 26.7014248,21.160299 26.7014248,14.350066 C26.7014248,7.53983301 21.1609432,1.99935146 14.3507102,1.99935146 C7.54047721,1.99935146 1.99999566,7.53983301 1.99999566,14.350066 C1.99999566,21.160299 7.54047721,26.7007806 14.3507102,26.7007806 Z" id="Shape"></path>
                <path d="M15.0787087,13.562165 L15.0787087,9.70092039 C16.4103534,9.79598835 16.9047068,10.4047204 17.3613301,10.4047204 C17.9319359,10.4047204 18.1982252,9.6819068 18.1982252,9.32054951 C18.1982252,8.38848738 16.3722272,7.98900388 15.0787087,7.9509767 L15.0787087,7.43741165 C15.0787087,7.20914951 14.7935049,7 14.5081029,7 C14.1847728,7 13.9565107,7.20914951 13.9565107,7.43741165 L13.9565107,7.98910291 C12.1494272,8.17923883 10.3424427,9.13041359 10.3424427,11.5270175 C10.3424427,13.9616485 12.2445942,14.646435 13.9565107,15.255068 L13.9565107,19.7250447 C12.016332,19.5729359 11.502767,18.2414893 10.8750214,18.2414893 C10.3994835,18.2414893 10,18.869235 10,19.3256602 C10,20.2577223 11.5977359,21.5321282 13.9564117,21.5701553 L13.9564117,22.1597748 C13.9564117,22.3881359 14.1846738,22.5972854 14.5080039,22.5972854 C14.7933068,22.5972854 15.0786097,22.3881359 15.0786097,22.1597748 L15.0786097,21.5131146 C17.1329689,21.2278117 18.5404699,19.9343922 18.5404699,17.5947301 C18.5405689,15.0077922 16.7335845,14.1707981 15.0787087,13.562165 Z M14.0705922,13.2008078 C13.0624757,12.8203379 12.2445942,12.4208544 12.2445942,11.3366835 C12.2445942,10.3476796 13.0053359,9.87204272 14.0705922,9.73894757 L14.0705922,13.2008078 Z M14.9646272,19.6870175 L14.9646272,15.673565 C15.8967883,16.0729495 16.6385165,16.6056272 16.6385165,17.8038796 C16.6385165,18.8880505 15.9917573,19.4966835 14.9646272,19.6870175 Z" id="Shape"></path>
            </g>
        </g>
    </g>
</svg>