<?xml version="1.0" encoding="UTF-8"?>
<svg width="88px" height="88px" viewBox="0 0 88 88" version="1.1" xmlns="http://www.w3.org/2000/svg" xmlns:xlink="http://www.w3.org/1999/xlink">
    <!-- Generator: Sketch 48.2 (47327) - http://www.bohemiancoding.com/sketch -->
    <title>icon / 2</title>
    <desc>Created with Sketch.</desc>
    <defs></defs>
    <g id="styleguide" stroke="none" stroke-width="1" fill="none" fill-rule="evenodd" transform="translate(-127.000000, -1414.000000)">
        <g id="icon-/-2" transform="translate(127.000000, 1414.000000)">
            <g id="icon-/-back" fill="#2AD4CE">
                <rect id="Rectangle-7-Copy" x="0" y="0" width="88" height="88" rx="44"></rect>
            </g>
            <g id="note" transform="translate(23.000000, 24.000000)" fill="#FFFFFF" fill-rule="nonzero">
                <path d="M51.1999023,4.58710021 C51.1999023,3.81280017 50.8984023,3.08490014 50.3509023,2.53750012 L49.2123022,1.39870006 C48.6648022,0.851200039 47.9368022,0.549700025 47.1625021,0.549700025 C46.3882021,0.549700025 45.6603021,0.851200039 45.1127021,1.39870006 L39.7474018,6.76400031 L39.7474018,1.04630005 C39.7474018,0.483100022 39.2907018,0.0264000012 38.7275018,0.0264000012 L1.01990005,0.0264000012 C0.456600021,0.0263000012 0,0.483100022 0,1.04630005 L0,38.7537018 C0,39.3169018 0.456600021,39.7736018 1.01990005,39.7736018 L38.7274018,39.7736018 C39.2906018,39.7736018 39.7473018,39.3169018 39.7473018,38.7537018 L39.7469018,17.2411008 L50.3509023,6.6370003 C50.8984023,6.08950028 51.1999023,5.36140024 51.1999023,4.58710021 Z M37.7075017,37.7337017 L2.03980009,37.7337017 L2.03980009,2.06630009 L37.7075017,2.06630009 L37.7074017,8.8039004 L19.0347009,27.4766013 C18.9227009,27.5886013 18.8384009,27.7252013 18.7883009,27.8753013 L16.8903008,33.5692015 C16.7681008,33.9357015 16.8635008,34.3398016 17.1367008,34.6129016 C17.3311008,34.8073016 17.5918008,34.9116016 17.8581008,34.9116016 C17.9660008,34.9116016 18.0748008,34.8945016 18.1805008,34.8593016 L23.8744011,32.9614015 C24.0246011,32.9113015 24.1611011,32.8270015 24.2731011,32.7150015 L37.7075017,19.2806009 L37.7075017,37.7337017 Z M23.000801,31.1024014 L19.4704009,32.2791015 L20.6472009,28.7487013 L42.3035019,7.09240032 L44.657102,9.44600043 L23.000801,31.1024014 Z M48.9085022,5.19450024 L46.0995021,8.00360036 L44.922702,6.82680031 L43.746002,5.65000026 L46.5551021,2.84090013 C46.7174021,2.67860012 46.9330021,2.58930012 47.1625021,2.58930012 C47.3920022,2.58930012 47.6076022,2.67860012 47.7699022,2.84080013 L48.9086022,3.97960018 C48.9086022,3.97970018 48.9086022,3.97970018 48.9087022,3.97970018 C49.0709022,4.14200019 49.1602022,4.3576002 49.1602022,4.58700021 C49.1602022,4.81660022 49.0708022,5.03230023 48.9085022,5.19450024 Z" id="Shape"></path>
                <path d="M31.8125014,6.40090029 L30.8401014,6.40090029 C30.2769014,6.40090029 29.8202014,6.85760031 29.8202014,7.42080034 C29.8202014,7.98400036 30.2768014,8.44070038 30.8401014,8.44070038 L31.8125014,8.44070038 C32.3757015,8.44070038 32.8324015,7.98400036 32.8324015,7.42080034 C32.8325015,6.85770031 32.3757015,6.40090029 31.8125014,6.40090029 Z" id="Shape"></path>
                <path d="M26.4103012,6.40090029 L7.82670036,6.40090029 C7.26340033,6.40090029 6.80680031,6.85760031 6.80680031,7.42080034 C6.80680031,7.98400036 7.26340033,8.44070038 7.82670036,8.44070038 L26.4104012,8.44070038 C26.9736012,8.44070038 27.4303012,7.98400036 27.4303012,7.42080034 C27.4302012,6.85770031 26.9735012,6.40090029 26.4103012,6.40090029 Z" id="Shape"></path>
                <path d="M25.4379012,12.3434006 L7.82670036,12.3434006 C7.26340033,12.3434006 6.80680031,12.8001006 6.80680031,13.3633006 C6.80680031,13.9265006 7.26340033,14.3832007 7.82670036,14.3832007 L25.4380012,14.3832007 C26.0012012,14.3832007 26.4579012,13.9265006 26.4579012,13.3633006 C26.4579012,12.8001006 26.0011012,12.3434006 25.4379012,12.3434006 Z" id="Shape"></path>
                <path d="M19.0633009,18.2859008 L7.82670036,18.2859008 C7.26340033,18.2859008 6.80680031,18.7426009 6.80680031,19.3058009 C6.80680031,19.8690009 7.26340033,20.3257009 7.82670036,20.3257009 L19.0634009,20.3257009 C19.6267009,20.3257009 20.0833009,19.8690009 20.0833009,19.3058009 C20.0833009,18.7426009 19.6266009,18.2859008 19.0633009,18.2859008 Z" id="Shape"></path>
                <path d="M14.2014006,24.1202011 L7.82670036,24.1202011 C7.26340033,24.1202011 6.80680031,24.5769011 6.80680031,25.1401011 C6.80680031,25.7033012 7.26340033,26.1600012 7.82670036,26.1600012 L14.2013006,26.1600012 C14.7646007,26.1600012 15.2212007,25.7033012 15.2212007,25.1401011 C15.2212007,24.5769011 14.7647007,24.1202011 14.2014006,24.1202011 Z" id="Shape"></path>
            </g>
        </g>
    </g>
</svg>