<?xml version="1.0" encoding="UTF-8"?>
<svg width="88px" height="88px" viewBox="0 0 88 88" version="1.1" xmlns="http://www.w3.org/2000/svg" xmlns:xlink="http://www.w3.org/1999/xlink">
    <!-- Generator: Sketch 48.2 (47327) - http://www.bohemiancoding.com/sketch -->
    <title>icon / 3</title>
    <desc>Created with Sketch.</desc>
    <defs></defs>
    <g id="styleguide" stroke="none" stroke-width="1" fill="none" fill-rule="evenodd" transform="translate(-127.000000, -1602.000000)">
        <g id="icon-/-3" transform="translate(127.000000, 1602.000000)">
            <g id="icon-/-back" fill="#2AD4CE">
                <rect id="Rectangle-7-Copy" x="0" y="0" width="88" height="88" rx="44"></rect>
            </g>
            <g id="005-phone-call" transform="translate(23.000000, 21.000000)" fill="#FFFFFF" fill-rule="nonzero">
                <path d="M16.4053007,27.2126012 L9.57260044,20.3798009 C9.18200042,19.9894009 8.54900039,19.9894009 8.15830037,20.3798009 C7.76780035,20.7703009 7.76780035,21.403501 8.15830037,21.794101 L14.9911007,28.6269013 C15.1864007,28.8221013 15.4423007,28.9198013 15.6982007,28.9198013 C15.9541007,28.9198013 16.2100007,28.8221013 16.4053007,28.6269013 C16.7958008,28.2364013 16.7958008,27.6032013 16.4053007,27.2126012 Z" id="Shape"></path>
                <path d="M20.0201009,30.8274014 L19.9585009,30.7657014 C19.5679009,30.3753014 18.9349009,30.3753014 18.5442008,30.7657014 C18.1537008,31.1562014 18.1537008,31.7894014 18.5442008,32.1800015 L18.6059008,32.2417015 C18.8012009,32.4369015 19.0571009,32.5346015 19.3130009,32.5346015 C19.5689009,32.5346015 19.8248009,32.4369015 20.0201009,32.2417015 C20.4106009,31.8512015 20.4106009,31.2180014 20.0201009,30.8274014 Z" id="Shape"></path>
                <path d="M1.7069,38.6920017 C1.521,38.5060017 1.263,38.3990017 1,38.3990017 C0.737,38.3990017 0.479,38.5059017 0.293,38.6920017 C0.107,38.8781017 0,39.1359017 0,39.3990017 C0,39.6620017 0.1069,39.9200017 0.293,40.1059017 C0.479,40.2919017 0.737,40.3990017 1,40.3990017 C1.263,40.3990017 1.521,40.2920017 1.7069,40.1059017 C1.893,39.9200017 2,39.6630017 2,39.3990017 C2,39.1359017 1.893,38.8780017 1.7069,38.6920017 Z" id="Shape"></path>
                <path d="M45.6476021,38.8334018 L40.2723018,33.4581015 C40.3350018,33.2058015 40.3765018,32.9469015 40.3923018,32.6835015 C40.4655018,31.4623014 40.0114018,30.2659014 39.1465018,29.4009013 L32.8779015,23.1323011 C32.0696015,22.324001 30.9949014,21.878901 29.8517014,21.878901 C28.7084013,21.878901 27.6337013,22.324001 26.8254012,23.1323011 L24.7860011,25.1717011 C24.2144011,25.7434012 23.2844011,25.7432012 22.713101,25.1717011 L15.2230007,17.6817008 C14.9462007,17.4048008 14.7937007,17.0368008 14.7937007,16.6453008 C14.7937007,16.2537007 14.9462007,15.8856007 15.2231007,15.6088007 L17.2625008,13.5694006 C18.9311009,11.9007005 18.9311009,9.18570042 17.2625008,7.51700034 L10.9991005,1.25360006 C10.1341005,0.388700018 8.93810041,-0.0638000029 7.71650035,0.00780000036 C6.4954003,0.0811000037 5.36190024,0.675000031 4.60660021,1.63720007 L3.26140015,3.35050015 C-1.50910007,9.42740043 -0.986900045,18.1296008 4.4760002,23.5925011 L16.8075008,35.9240016 C19.7707009,38.8872018 23.6857011,40.3967018 27.6190013,40.3964018 C30.9372014,40.3961018 34.2688016,39.3214018 37.0495017,37.1385017 L38.7629018,35.7935016 C38.9531018,35.6442016 39.1283018,35.4795016 39.2886018,35.3029016 L44.233402,40.2477018 C44.849002,40.8633019 45.017702,41.7111019 44.684502,42.5154019 C44.351302,43.319802 43.632502,43.800102 42.7619019,43.800102 L15.5004007,43.800102 C14.5628007,43.800102 13.8000006,43.037302 13.8000006,42.0997019 C13.8000006,40.0593018 12.1400006,38.3993017 10.0996005,38.3993017 L5.05000023,38.3993017 C4.4978002,38.3993017 4.05000018,38.8471018 4.05000018,39.3993018 C4.05000018,39.9515018 4.4978002,40.3993018 5.05000023,40.3993018 L10.0996005,40.3993018 C11.0372005,40.3993018 11.8000005,41.1621019 11.8000005,42.0997019 C11.8000005,44.140002 13.4600006,45.8000021 15.5004007,45.8000021 L42.7619019,45.8000021 C44.443802,45.8000021 45.8886021,44.834702 46.5322021,43.280802 C47.1758021,41.7269019 46.8369021,40.0228018 45.6476021,38.8334018 Z M6.17980028,2.87210013 C6.5880003,2.35200011 7.17640033,2.04380009 7.83630036,2.00410009 C7.88410036,2.00130009 7.93160036,1.99990009 7.97900036,1.99990009 C8.58540039,1.99990009 9.15120042,2.2341001 9.58490044,2.66780012 L15.8483007,8.93110041 C16.7372008,9.82010045 16.7372008,11.2664005 15.8483007,12.1551006 L14.5057007,13.4977006 L5.16830024,4.16030019 L6.17980028,2.87210013 Z M18.2218008,34.5098016 L5.89020027,22.178201 C1.49660007,17.7846008 0.780700036,10.9805005 3.98360018,5.80420026 L13.1976006,15.0183007 C12.9338006,15.5133007 12.7937006,16.0685007 12.7937006,16.6453008 C12.7937006,17.5711008 13.1542006,18.4414008 13.8088006,19.0960009 L21.298801,26.5860012 C22.400501,27.6877013 24.0655011,27.8909013 25.3754012,27.1961012 L34.5957016,36.4164017 C29.4194013,39.6195018 22.615401,38.9034018 18.2218008,34.5098016 Z M38.3960017,32.5637015 C38.3563017,33.2236015 38.0480017,33.8120015 37.5279017,34.2202016 L36.2396017,35.2316016 L26.8972012,25.8892012 L28.2398013,24.5466011 C29.1288013,23.6576011 30.5750014,23.6578011 31.4637014,24.5466011 L37.7323017,30.8152014 C38.1999017,31.2827014 38.4355018,31.9037015 38.3960017,32.5637015 Z" id="Shape"></path>
            </g>
        </g>
    </g>
</svg>