<?xml version="1.0" encoding="UTF-8"?>
<svg width="88px" height="88px" viewBox="0 0 88 88" version="1.1" xmlns="http://www.w3.org/2000/svg" xmlns:xlink="http://www.w3.org/1999/xlink">
    <!-- Generator: Sketch 48.2 (47327) - http://www.bohemiancoding.com/sketch -->
    <title>icon / 4</title>
    <desc>Created with Sketch.</desc>
    <defs></defs>
    <g id="styleguide" stroke="none" stroke-width="1" fill="none" fill-rule="evenodd" transform="translate(-127.000000, -1790.000000)">
        <g id="icon-/-4" transform="translate(127.000000, 1790.000000)">
            <g id="icon-/-back" fill="#2AD4CE">
                <rect id="Rectangle-7-Copy" x="0" y="0" width="88" height="88" rx="44"></rect>
            </g>
            <g id="bar-graph-1" transform="translate(18.000000, 27.000000)" fill="#FFFFFF" fill-rule="nonzero">
                <path d="M50.1801023,32.5009015 L48.2475022,32.5009015 L48.2475022,3.50710016 C48.2475022,2.94390013 47.7909022,2.48720011 47.2276022,2.48720011 L40.8796019,2.48720011 C40.3163018,2.48720011 39.8597018,2.94390013 39.8597018,3.50710016 L39.8597018,32.5009015 L37.2094017,32.5009015 L37.2094017,6.36870029 C37.2094017,5.80550026 36.7528017,5.34880024 36.1895016,5.34880024 L29.8415014,5.34880024 C29.2782013,5.34880024 28.8216013,5.80550026 28.8216013,6.36870029 L28.8216013,32.5008015 L26.1713012,32.5008015 L26.1713012,1.36070006 C26.1713012,0.797500036 25.7147012,0.340800016 25.1514011,0.340800016 L18.8034009,0.340800016 C18.2401008,0.340800016 17.7835008,0.797500036 17.7835008,1.36070006 L17.7835008,32.5008015 L15.1332007,32.5008015 L15.1332007,9.84370045 C15.1332007,9.28050042 14.6766007,8.8238004 14.1133006,8.8238004 L7.76530035,8.8238004 C7.20200033,8.8238004 6.74540031,9.28050042 6.74540031,9.84370045 L6.74540031,32.5008015 L4.08400019,32.5008015 L4.08400019,1.07910005 C4.08400019,0.515900023 3.62740017,0.0592000027 3.06410014,0.0592000027 C2.50080011,0.0592000027 2.04420009,0.515900023 2.04420009,1.07910005 L2.04420009,2.38480011 L1.01990005,2.38480011 C0.456600021,2.38480011 0,2.84160013 0,3.40480016 C0,3.96800018 0.456600021,4.4247002 1.01990005,4.4247002 L2.04410009,4.4247002 L2.04410009,6.88190031 L1.01990005,6.88190031 C0.456600021,6.88190031 0,7.33860033 0,7.90180036 C0,8.46500039 0.456600021,8.92170041 1.01990005,8.92170041 L2.04410009,8.92170041 L2.04410009,11.3789005 L1.01990005,11.3789005 C0.456600021,11.3789005 0,11.8356005 0,12.3988006 C0,12.9620006 0.456600021,13.4187006 1.01990005,13.4187006 L2.04410009,13.4187006 L2.04410009,15.8758007 L1.01990005,15.8758007 C0.456600021,15.8758007 0,16.3326007 0,16.8958008 C0,17.4590008 0.456600021,17.9157008 1.01990005,17.9157008 L2.04410009,17.9157008 L2.04410009,20.3729009 L1.01990005,20.3729009 C0.456600021,20.3729009 0,20.8296009 0,21.392801 C0,21.956001 0.456600021,22.412701 1.01990005,22.412701 L2.04410009,22.412701 L2.04410009,24.8699011 L1.01990005,24.8699011 C0.456600021,24.8699011 0,25.3266012 0,25.8898012 C0,26.4530012 0.456600021,26.9097012 1.01990005,26.9097012 L2.04410009,26.9097012 L2.04410009,29.3668013 L1.01990005,29.3668013 C0.456600021,29.3668013 0,29.8235014 0,30.3867014 C0,30.9499014 0.456600021,31.4066014 1.01990005,31.4066014 L2.04410009,31.4066014 L2.04410009,33.5208015 C2.04410009,34.0840016 2.50070011,34.5407016 3.06400014,34.5407016 L50.1800023,34.5407016 C50.7433023,34.5407016 51.1999023,34.0840016 51.1999023,33.5208015 C51.1999023,32.9576015 50.7434023,32.5009015 50.1801023,32.5009015 Z M13.0934006,32.5008015 L8.7853004,32.5008015 L8.7853004,15.4628007 L13.0934006,15.4628007 L13.0934006,32.5008015 Z M13.0934006,13.4229006 L8.7853004,13.4229006 C8.7853004,13.4229006 8.7853004,10.8636005 8.7853004,10.8636005 L13.0934006,10.8636005 L13.0934006,13.4229006 Z M24.1315011,32.5008015 L19.8234009,32.5008015 L19.8234009,11.1897005 L24.1315011,11.1897005 L24.1315011,32.5008015 Z M24.1315011,9.14990042 L19.8234009,9.14990042 L19.8234009,2.38070011 L24.1315011,2.38070011 L24.1315011,9.14990042 Z M35.1695016,32.5008015 L30.8614014,32.5008015 L30.8614014,19.2443009 L35.1695016,19.2443009 L35.1695016,32.5008015 Z M35.1695016,17.2045008 L30.8614014,17.2045008 L30.8614014,7.38870034 L35.1695016,7.38870034 L35.1695016,17.2045008 Z M46.2076021,32.5008015 L41.8995019,32.5008015 L41.8995019,14.2363006 L46.2076021,14.2363006 L46.2076021,32.5008015 Z M46.2076021,12.1965006 L41.8995019,12.1965006 L41.8995019,4.52700021 L46.2076021,4.52700021 L46.2076021,12.1965006 Z" id="Shape"></path>
            </g>
        </g>
    </g>
</svg>