<?xml version="1.0" encoding="UTF-8"?>
<svg width="88px" height="88px" viewBox="0 0 88 88" version="1.1" xmlns="http://www.w3.org/2000/svg" xmlns:xlink="http://www.w3.org/1999/xlink">
    <!-- Generator: Sketch 48.2 (47327) - http://www.bohemiancoding.com/sketch -->
    <title>icon / 5</title>
    <desc>Created with Sketch.</desc>
    <defs></defs>
    <g id="styleguide" stroke="none" stroke-width="1" fill="none" fill-rule="evenodd" transform="translate(-315.000000, -1226.000000)">
        <g id="icon-/-5" transform="translate(315.000000, 1226.000000)">
            <g id="icon-/-back" fill="#2AD4CE">
                <rect id="Rectangle-7-Copy" x="0" y="0" width="88" height="88" rx="44"></rect>
            </g>
            <g id="shield" transform="translate(24.000000, 22.000000)" fill="#FFFFFF" fill-rule="nonzero">
                <path d="M40.1013018,0.723100033 C39.6680018,0.263600012 39.0574018,0 38.4258017,0 L2.37430011,0 C1.74270008,0 1.13210005,0.263600012 0.698700032,0.723100033 C0.265500012,1.18250005 0.0383000017,1.80760008 0.0754000034,2.43820011 L2.2307001,39.0398018 C2.2744001,39.7800018 2.67500012,40.4579018 3.30240015,40.8530019 L19.1730009,50.8480023 C19.5457009,51.0827023 19.9729009,51.2000023 20.4000009,51.2000023 C20.8272009,51.2000023 21.254401,51.0826023 21.627101,50.8479023 L37.4976017,40.8528019 C38.1251017,40.4577018 38.5256018,39.7799018 38.5693018,39.0396018 L40.7246019,2.43810011 C40.7617019,1.80770008 40.5346018,1.18250005 40.1013018,0.723100033 Z M36.5330017,38.9198018 C36.5280017,39.0043018 36.4823017,39.0817018 36.4107017,39.1268018 L20.5403009,49.1219022 C20.4552009,49.1754022 20.3451009,49.1754022 20.2600009,49.1219022 L4.3894002,39.1267018 C4.3178002,39.0816018 4.27210019,39.0042018 4.26710019,38.9197018 L2.1119001,2.31830011 C2.1064001,2.2247001 2.1476001,2.1603001 2.1831001,2.1226001 C2.2186001,2.08490009 2.2806001,2.04000009 2.37430011,2.04000009 L38.4258017,2.04000009 C38.5195018,2.04000009 38.5817018,2.08500009 38.6171018,2.1226001 C38.6526018,2.1602001 38.6937018,2.2247001 38.6882018,2.31830011 L36.5330017,38.9198018 Z" id="Shape"></path>
                <path d="M34.7607016,5.79380026 C34.5680016,5.59060025 34.3004016,5.47560025 34.0204015,5.47560025 L6.77950031,5.47560025 C6.4995003,5.47560025 6.23190028,5.59070025 6.03920028,5.79380026 C5.84660027,5.99700027 5.74610026,6.27040029 5.76100026,6.5500003 L7.35880034,36.4023017 C7.37650034,36.7330017 7.55360034,37.0345017 7.83380036,37.2109017 L19.8565009,44.782702 C20.0225009,44.887202 20.2112009,44.939602 20.4000009,44.939602 C20.5888009,44.939602 20.7775009,44.887302 20.943401,44.782702 L32.9661015,37.2109017 C33.2463015,37.0343017 33.4234015,36.7329017 33.4411015,36.4023017 L35.0389016,6.5500003 C35.0539016,6.27040029 34.9532016,5.99700027 34.7607016,5.79380026 Z M31.4324014,35.7660016 L20.4000009,42.7141019 L9.36760043,35.7660016 L7.85560036,7.51540034 L32.9445015,7.51540034 L31.4324014,35.7660016 Z" id="Shape"></path>
                <path d="M21.873001,9.19340042 L10.8255005,9.19340042 C10.2622005,9.19340042 9.80550045,9.65010044 9.80550045,10.2134005 C9.80550045,10.7766005 10.2621005,11.2334005 10.8255005,11.2334005 L21.873101,11.2334005 C22.436401,11.2334005 22.893001,10.7767005 22.893001,10.2134005 C22.893001,9.65020044 22.436401,9.19340042 21.873001,9.19340042 Z" id="Shape"></path>
                <path d="M26.6533012,9.19340042 L25.4848012,9.19340042 C24.9215011,9.19340042 24.4648011,9.65010044 24.4648011,10.2134005 C24.4648011,10.7766005 24.9214011,11.2334005 25.4848012,11.2334005 L26.6533012,11.2334005 C27.2166012,11.2334005 27.6733013,10.7767005 27.6733013,10.2134005 C27.6733013,9.65020044 27.2166012,9.19340042 26.6533012,9.19340042 Z" id="Shape"></path>
                <path d="M21.029201,23.4303011 L21.029201,17.4582008 C22.941301,17.5630008 23.6747011,18.4274008 24.2247011,18.4274008 C24.8272011,18.4274008 25.1677011,17.6416008 25.1677011,17.2225008 C25.1677011,16.1749007 22.888901,15.5724007 21.029201,15.4938007 L21.029201,14.7604007 C21.029201,14.4723007 20.6887009,14.2103006 20.3482009,14.2103006 C19.9553009,14.2103006 19.6672009,14.4723007 19.6672009,14.7604007 L19.6672009,15.5462007 C17.3098008,15.7558007 14.8215007,16.9084008 14.8215007,20.2087009 C14.8215007,23.5614011 17.3361008,24.4258011 19.6672009,25.2378011 L19.6672009,32.2053015 C16.6812008,32.0743015 16.0526007,30.1098014 15.3191007,30.1098014 C14.8216007,30.1098014 14.3500007,30.7907014 14.3500007,31.3147014 C14.3500007,32.4148015 16.3930007,34.2221016 19.6672009,34.2745016 L19.6672009,35.1387016 C19.6672009,35.4269016 19.9553009,35.6888016 20.3482009,35.6888016 C20.6888009,35.6888016 21.029201,35.4269016 21.029201,35.1387016 L21.029201,34.1957016 C23.7533011,33.8290015 25.6392012,32.1265015 25.6392012,28.9309013 C25.6392012,25.3424012 23.2557011,24.2423011 21.029201,23.4303011 Z M19.7719009,22.985301 C18.2266008,22.408901 16.9168008,21.806501 16.9168008,19.9992009 C16.9168008,18.3229008 18.2003008,17.6419008 19.7719009,17.4847008 L19.7719009,22.985301 Z M20.924401,32.1528015 L20.924401,25.7354012 C22.365101,26.3380012 23.5438011,27.1500012 23.5438011,29.1405013 C23.5437011,30.8693014 22.574601,31.8909015 20.924401,32.1528015 Z" id="Shape"></path>
            </g>
        </g>
    </g>
</svg>