<?xml version="1.0" encoding="UTF-8"?>
<svg width="88px" height="88px" viewBox="0 0 88 88" version="1.1" xmlns="http://www.w3.org/2000/svg" xmlns:xlink="http://www.w3.org/1999/xlink">
    <!-- Generator: Sketch 48.2 (47327) - http://www.bohemiancoding.com/sketch -->
    <title>icon / 6</title>
    <desc>Created with Sketch.</desc>
    <defs></defs>
    <g id="styleguide" stroke="none" stroke-width="1" fill="none" fill-rule="evenodd" transform="translate(-315.000000, -1414.000000)">
        <g id="icon-/-6" transform="translate(315.000000, 1414.000000)">
            <g id="icon-/-back" fill="#2AD4CE">
                <rect id="Rectangle-7-Copy" x="0" y="0" width="88" height="88" rx="44"></rect>
            </g>
            <g id="050-profits" transform="translate(18.000000, 17.000000)" fill="#FFFFFF" fill-rule="nonzero">
                <path d="M50.2000023,49.2001022 L49.4000022,49.2001022 L49.4000022,20.0001009 C49.4000022,19.4478009 48.9523022,19.0001009 48.4000022,19.0001009 L40.4000018,19.0001009 C39.8477018,19.0001009 39.4000018,19.4478009 39.4000018,20.0001009 L39.4000018,30.7001014 C39.4000018,31.2524014 39.8477018,31.7001014 40.4000018,31.7001014 C40.9523019,31.7001014 41.4000019,31.2524014 41.4000019,30.7001014 L41.4000019,21.000101 L47.4000022,21.000101 L47.4000022,49.2001022 L41.4000019,49.2001022 L41.4000019,40.4986018 C41.4000019,39.9463018 40.9523019,39.4986018 40.4000018,39.4986018 C39.8477018,39.4986018 39.4000018,39.9463018 39.4000018,40.4986018 L39.4000018,49.2001022 L37.0000017,49.2001022 L37.0000017,26.6001012 C37.0000017,26.0478012 36.5523017,25.6001012 36.0000016,25.6001012 L28.0000013,25.6001012 C27.4477012,25.6001012 27.0000012,26.0478012 27.0000012,26.6001012 L27.0000012,49.2001022 L24.2000011,49.2001022 L24.2000011,32.8001015 C24.2000011,32.2478015 23.7523011,31.8001014 23.2000011,31.8001014 L15.2000007,31.8001014 C14.6477007,31.8001014 14.2000006,32.2478015 14.2000006,32.8001015 L14.2000006,49.2001022 L11.8000005,49.2001022 L11.8000005,39.2001018 C11.8000005,38.6478018 11.3523005,38.2001017 10.8000005,38.2001017 L2.80000013,38.2001017 C2.2477001,38.2001017 1.80000008,38.6478018 1.80000008,39.2001018 L1.80000008,49.2001022 L1.00000005,49.2001022 C0.44770002,49.2001022 0,49.6478023 0,50.2001023 C0,50.7524023 0.44770002,51.2001023 1.00000005,51.2001023 L50.2000023,51.2001023 C50.7523023,51.2001023 51.2000023,50.7524023 51.2000023,50.2001023 C51.2000023,49.6478023 50.7523023,49.2001022 50.2000023,49.2001022 Z M9.80000045,49.2001022 L3.80000017,49.2001022 L3.80000017,40.2001018 L9.80000045,40.2001018 L9.80000045,49.2001022 Z M22.200001,49.2001022 L16.2000007,49.2001022 L16.2000007,33.8001015 L22.200001,33.8001015 L22.200001,49.2001022 Z M35.0000016,49.2001022 L29.0000013,49.2001022 L29.0000013,27.6001013 L35.0000016,27.6001013 L35.0000016,49.2001022 Z" id="Shape"></path>
                <path d="M41.1070018,34.6821016 C40.9210018,34.4961016 40.6630018,34.3901016 40.4000018,34.3901016 C40.1370018,34.3901016 39.8790018,34.4961016 39.6930018,34.6821016 C39.5070018,34.8681016 39.4000018,35.1261016 39.4000018,35.3901016 C39.4000018,35.6531016 39.5070018,35.9101016 39.6930018,36.0971016 C39.8790018,36.2832016 40.1370018,36.3901016 40.4000018,36.3901016 C40.6630018,36.3901016 40.9210018,36.2831016 41.1070018,36.0971016 C41.2930018,35.9101016 41.4000018,35.6531016 41.4000018,35.3901016 C41.4000018,35.1261016 41.2930018,34.8681016 41.1070018,34.6821016 Z" id="Shape"></path>
                <path d="M43.600102,0 C39.4094018,0 36.0001016,3.40930016 36.0001016,7.60000035 C36.0001016,11.7907005 39.4095018,15.2000007 43.600102,15.2000007 C47.7908022,15.2000007 51.2001023,11.7907005 51.2001023,7.60000035 C51.2001023,3.40930016 47.7908022,0 43.600102,0 Z M43.600102,10.5093005 C42.974702,10.5093005 42.4660019,10.0890005 42.4660019,9.57250044 C42.4660019,9.02020041 42.0183019,8.57250039 41.4660019,8.57250039 C40.9137019,8.57250039 40.4660018,9.02020041 40.4660018,9.57250044 C40.4660018,10.8642005 41.3610019,11.9630005 42.6001019,12.3551006 L42.6001019,13.1088006 C39.9880018,12.6357006 38.0001017,10.3464005 38.0001017,7.60000035 C38.0001017,4.85360022 39.9880018,2.56430012 42.6001019,2.0912001 L42.6001019,2.91630013 C41.3610019,3.30840015 40.4660018,4.4072002 40.4660018,5.69890026 C40.4660018,7.31830033 41.8720019,8.63570039 43.600102,8.63570039 C44.225402,8.63570039 44.734202,9.05590041 44.734202,9.57250044 C44.734202,10.0891005 44.225502,10.5093005 43.600102,10.5093005 Z M44.600102,13.1088006 L44.600102,12.3551006 C45.8392021,11.9630005 46.7342021,10.8642005 46.7342021,9.57250044 C46.7342021,7.95320036 45.3282021,6.6357003 43.600102,6.6357003 C42.974802,6.6357003 42.4660019,6.21540028 42.4660019,5.69890026 C42.4660019,5.18240024 42.974702,4.76210022 43.600102,4.76210022 C44.225502,4.76210022 44.734202,5.18240024 44.734202,5.69890026 C44.734202,6.25120028 45.1819021,6.69890031 45.7342021,6.69890031 C46.2865021,6.69890031 46.7342021,6.25120028 46.7342021,5.69890026 C46.7342021,4.4072002 45.8392021,3.30840015 44.600102,2.91630013 L44.600102,2.0912001 C47.2123021,2.56430012 49.2001022,4.85360022 49.2001022,7.60000035 C49.2001022,10.3464005 47.2122021,12.6357006 44.600102,13.1088006 Z" id="Shape"></path>
                <path d="M35.5998016,12.9367006 L31.6848014,12.9367006 C31.1325014,12.9367006 30.6848014,13.3844006 30.6848014,13.9367006 C30.6848014,14.4890007 31.1325014,14.9367007 31.6848014,14.9367007 L33.1855015,14.9367007 L22.493601,25.6287012 L17.0615008,20.1966009 C16.6710008,19.8062009 16.0378007,19.8062009 15.6472007,20.1966009 L4.77180022,31.0719014 C4.3813002,31.4624014 4.3813002,32.0956015 4.77180022,32.4861015 C4.96700023,32.6814015 5.22300024,32.7791015 5.47890025,32.7791015 C5.73480026,32.7791015 5.99080027,32.6814015 6.18600028,32.4862015 L16.3543007,22.317901 L21.786401,27.7500013 C22.176901,28.1405013 22.810101,28.1405013 23.2007011,27.7500013 L34.5998016,16.3509007 L34.5998016,17.8517008 C34.5998016,18.4040008 35.0475016,18.8517009 35.5998016,18.8517009 C36.1521016,18.8517009 36.5998017,18.4040008 36.5998017,17.8517008 L36.5998017,13.9367006 C36.5998017,13.3844006 36.1521016,12.9367006 35.5998016,12.9367006 Z" id="Shape"></path>
                <path d="M3.58600009,33.6722015 C3.40000009,33.4862015 3.14200009,33.3792015 2.87900009,33.3792015 C2.61600009,33.3792015 2.35800009,33.4862015 2.17200009,33.6722015 C1.98600009,33.8582015 1.87900009,34.1162015 1.87900009,34.3792015 C1.87900009,34.6422015 1.98600009,34.9002015 2.17200009,35.0862015 C2.35800009,35.2721015 2.61600009,35.3792015 2.87900009,35.3792015 C3.14200009,35.3792015 3.40000009,35.2722015 3.58600009,35.0862015 C3.77200009,34.9002015 3.87900009,34.6422015 3.87900009,34.3792015 C3.87900009,34.1162015 3.77200009,33.8582015 3.58600009,33.6722015 Z" id="Shape"></path>
            </g>
        </g>
    </g>
</svg>