<?xml version="1.0" encoding="UTF-8"?>
<svg width="88px" height="88px" viewBox="0 0 88 88" version="1.1" xmlns="http://www.w3.org/2000/svg" xmlns:xlink="http://www.w3.org/1999/xlink">
    <!-- Generator: Sketch 48.2 (47327) - http://www.bohemiancoding.com/sketch -->
    <title>icon / 7</title>
    <desc>Created with Sketch.</desc>
    <defs></defs>
    <g id="styleguide" stroke="none" stroke-width="1" fill="none" fill-rule="evenodd" transform="translate(-315.000000, -1602.000000)">
        <g id="icon-/-7" transform="translate(315.000000, 1602.000000)">
            <g id="icon-/-back" fill="#2AD4CE">
                <rect id="Rectangle-7-Copy" x="0" y="0" width="88" height="88" rx="44"></rect>
            </g>
            <g id="balance" transform="translate(18.000000, 18.000000)" fill="#FFFFFF" fill-rule="nonzero">
                <path d="M50.1801023,16.8468008 L49.4966023,16.8468008 C48.8307022,13.4683006 45.4153021,7.51980034 43.903302,5.00030023 C44.612202,4.51270021 45.0782021,3.69620017 45.0782021,2.77270013 C45.0782021,1.28270006 43.865902,0.0704000032 42.3759019,0.0704000032 C40.8859019,0.0704000032 39.6737018,1.28260006 39.6737018,2.77270013 C39.6737018,3.69620017 40.1397018,4.51270021 40.8487019,5.00030023 C39.3368018,7.51980034 35.9214016,13.4683006 35.2555016,16.8468008 L34.5721016,16.8468008 C34.0089015,16.8468008 33.5522015,17.3034008 33.5522015,17.8667008 C33.5522015,22.732201 37.5106017,26.6906012 42.3761019,26.6906012 C47.2416022,26.6906012 51.2000023,22.732201 51.2000023,17.8667008 C51.2000023,17.3034008 50.7433023,16.8468008 50.1801023,16.8468008 Z M42.3760019,2.1103001 C42.7412019,2.1103001 43.038402,2.40750011 43.038402,2.77270013 C43.038402,3.13790014 42.7412019,3.43500016 42.3760019,3.43500016 C42.0108019,3.43500016 41.7137019,3.13790014 41.7137019,2.77270013 C41.7137019,2.40750011 42.0107019,2.1103001 42.3760019,2.1103001 Z M42.3744019,6.42030029 C44.100302,9.33350043 46.7656021,14.1861006 47.4212022,16.8468008 L37.3340017,16.8468008 C37.9529017,14.3556007 40.3510018,9.82090045 42.3744019,6.42030029 Z M42.3760019,24.6508011 C38.9819018,24.6508011 36.1618016,22.145301 35.6684016,18.8866009 L49.0837022,18.8866009 C48.5902022,22.145301 45.7703021,24.6508011 42.3760019,24.6508011 Z" id="Shape"></path>
                <path d="M34.6782016,41.2674019 L31.9818015,41.2674019 L31.9818015,38.6772018 C31.9818015,38.1139017 31.5251014,37.6573017 30.9619014,37.6573017 L28.3717013,37.6573017 L28.3717013,9.16700042 C29.0388013,8.50760039 29.4685013,7.60850035 29.5183013,6.6108003 L33.8309015,5.68280026 C34.3816016,5.56430025 34.7320016,5.02180023 34.6135016,4.4711002 C34.4949016,3.92040018 33.9524015,3.57040016 33.4018015,3.68860017 L29.0791013,4.61890021 C28.4306013,3.38770015 27.1386012,2.54580012 25.6530012,2.54580012 C23.5957011,2.54580012 21.908901,4.15940019 21.790201,6.18740028 L11.0062005,8.50800039 C10.5142005,7.83510036 9.71950044,7.39690034 8.8240004,7.39690034 C7.33400033,7.39690034 6.12170028,8.60910039 6.12170028,10.0992005 C6.12170028,11.0227005 6.5877003,11.8393005 7.29670033,12.3268006 C5.78470026,14.8463007 2.36940011,20.7948009 1.70350008,24.1733011 L1.02010005,24.1733011 C0.456600021,24.1733011 0,24.6299011 0,25.1932011 C0,30.0587014 3.95840018,34.0171015 8.8239004,34.0171015 C13.6894006,34.0171015 17.6478008,30.0587014 17.6478008,25.1932011 C17.6478008,24.6299011 17.1912008,24.1733011 16.6279008,24.1733011 L15.9445007,24.1733011 C15.2786007,20.7947009 11.8632005,14.8463007 10.3513005,12.3268006 C10.9587005,11.9091005 11.3873005,11.2500005 11.4978005,10.4889005 L22.211901,8.18340037 C22.400401,8.54880039 22.644701,8.8808004 22.934401,9.16720042 L22.934401,37.6576017 L20.3443009,37.6576017 C19.7810009,37.6576017 19.3244009,38.1142017 19.3244009,38.6775018 L19.3244009,41.2677019 L16.6280008,41.2677019 C16.0647007,41.2677019 15.6081007,41.7243019 15.6081007,42.2876019 L15.6081007,46.1097021 C15.6081007,46.6730021 16.0647007,47.1296021 16.6280008,47.1296021 L34.6782016,47.1296021 C35.2414016,47.1296021 35.6981016,46.6730021 35.6981016,46.1097021 L35.6981016,42.2873019 C35.6981016,41.7240019 35.2414016,41.2674019 34.6782016,41.2674019 Z M8.8239004,9.43660043 C9.18910042,9.43660043 9.48630043,9.73380044 9.48630043,10.0990005 C9.48630043,10.4642005 9.18910042,10.7613005 8.8239004,10.7613005 C8.45870039,10.7613005 8.16150037,10.4642005 8.16150037,10.0990005 C8.16150037,9.73380044 8.45870039,9.43660043 8.8239004,9.43660043 Z M8.8239004,31.9771015 C5.42970025,31.9771015 2.60970012,29.4716013 2.1163001,26.2129012 L15.5315007,26.2129012 C15.0381007,29.4716013 12.2181006,31.9771015 8.8239004,31.9771015 Z M13.8691006,24.1731011 L3.78190017,24.1731011 C4.4009002,21.681901 6.79900031,17.1472008 8.8224004,13.7466006 C10.5482005,16.6597008 13.2135006,21.512301 13.8691006,24.1731011 Z M25.6531012,4.58540021 C26.6624012,4.58540021 27.4834013,5.40640025 27.4834013,6.41570029 C27.4834013,7.42500034 26.6623012,8.24600038 25.6531012,8.24600038 C24.6439011,8.24600038 23.8228011,7.42500034 23.8228011,6.41570029 C23.8228011,5.40640025 24.6438011,4.58540021 25.6531012,4.58540021 Z M26.3320012,10.2251005 L26.3320012,37.6574017 L24.9742011,37.6574017 L24.9742011,10.2251005 C25.1948011,10.2644005 25.4214012,10.2860005 25.6532012,10.2860005 C25.8850012,10.2860005 26.1114012,10.2643005 26.3320012,10.2251005 Z M21.364101,39.6971018 L29.9420014,39.6971018 L29.9420014,41.2674019 L21.364101,41.2674019 L21.364101,39.6971018 Z M33.6583015,45.0897021 L17.6479008,45.0897021 L17.6479008,43.307202 L33.6583015,43.307202 L33.6583015,45.0897021 Z" id="Shape"></path>
                <path d="M38.5420018,3.68880017 C38.4235017,3.13810014 37.8809017,2.78780013 37.3302017,2.90630013 L36.5870017,3.06620014 C36.0364016,3.18470015 35.6860016,3.72720017 35.8045016,4.27790019 C35.9076016,4.75630022 36.3304017,5.08340023 36.8007017,5.08340023 C36.8718017,5.08340023 36.9440017,5.07600023 37.0163017,5.06040023 L37.7595017,4.90050022 C38.3100017,4.78200022 38.6605018,4.23950019 38.5420018,3.68880017 Z" id="Shape"></path>
            </g>
        </g>
    </g>
</svg>