<?xml version="1.0" encoding="UTF-8"?>
<svg width="88px" height="88px" viewBox="0 0 88 88" version="1.1" xmlns="http://www.w3.org/2000/svg" xmlns:xlink="http://www.w3.org/1999/xlink">
    <!-- Generator: Sketch 48.2 (47327) - http://www.bohemiancoding.com/sketch -->
    <title>icon / 8</title>
    <desc>Created with Sketch.</desc>
    <defs></defs>
    <g id="styleguide" stroke="none" stroke-width="1" fill="none" fill-rule="evenodd" transform="translate(-315.000000, -1790.000000)">
        <g id="icon-/-8" transform="translate(315.000000, 1790.000000)">
            <g id="icon-/-back" fill="#2AD4CE">
                <rect id="Rectangle-7-Copy" x="0" y="0" width="88" height="88" rx="44"></rect>
            </g>
            <g id="014-24-hours" transform="translate(18.000000, 18.000000)" fill="#FFFFFF" fill-rule="nonzero">
                <path d="M23.0815011,28.9822013 L21.117001,28.9822013 C22.512801,27.5825013 24.0815011,25.5560012 24.0815011,23.5169011 C24.0815011,21.532601 22.748301,20.1995009 20.7641009,20.1995009 C18.9349009,20.1995009 17.4467008,21.687701 17.4467008,23.5169011 C17.4467008,24.0691011 17.8944008,24.5169011 18.4467008,24.5169011 C18.9990009,24.5169011 19.4467009,24.0691011 19.4467009,23.5169011 C19.4467009,22.790501 20.0377009,22.199501 20.7641009,22.199501 C22.081501,22.199501 22.081501,23.1910011 22.081501,23.5169011 C22.081501,25.6028012 19.0297009,28.3099013 17.8544008,29.1766013 C17.5062008,29.4327013 17.3618008,29.8834014 17.4966008,30.2940014 C17.6313008,30.7047014 18.0145008,30.9823014 18.4467008,30.9823014 L23.0815011,30.9823014 C23.6338011,30.9823014 24.0815011,30.5344014 24.0815011,29.9822014 C24.0815011,29.4300013 23.6338011,28.9822013 23.0815011,28.9822013 Z" id="Shape"></path>
                <path d="M31.1000014,20.1996009 C30.5477014,20.1996009 30.1000014,20.6474009 30.1000014,21.199601 L30.1000014,29.9996014 C30.1000014,30.5518014 30.5477014,30.9996014 31.1000014,30.9996014 C31.6523014,30.9996014 32.1000015,30.5518014 32.1000015,29.9996014 L32.1000015,21.199601 C32.1000015,20.6474009 31.6523014,20.1996009 31.1000014,20.1996009 Z" id="Shape"></path>
                <path d="M32.7532015,24.5947011 L27.8815013,24.5947011 L27.8815013,21.199601 C27.8815013,20.6474009 27.4338012,20.1996009 26.8815012,20.1996009 C26.3292012,20.1996009 25.8815012,20.6474009 25.8815012,21.199601 L25.8815012,25.5947012 C25.8815012,26.1469012 26.3292012,26.5947012 26.8815012,26.5947012 L32.7532015,26.5947012 C33.3055015,26.5947012 33.7532015,26.1469012 33.7532015,25.5947012 C33.7532015,25.0425011 33.3055015,24.5947011 32.7532015,24.5947011 Z" id="Shape"></path>
                <path d="M25.6000012,10.2649005 C25.0477011,10.2649005 24.6000011,10.7127005 24.6000011,11.2649005 L24.6000011,13.3315006 C24.6000011,13.8837006 25.0477011,14.3315007 25.6000012,14.3315007 C26.1523012,14.3315007 26.6000012,13.8838006 26.6000012,13.3315006 L26.6000012,11.2649005 C26.6000012,10.7127005 26.1523012,10.2649005 25.6000012,10.2649005 Z" id="Shape"></path>
                <path d="M25.6000012,36.8676017 C25.0477011,36.8676017 24.6000011,37.3154017 24.6000011,37.8676017 L24.6000011,39.9342018 C24.6000011,40.4864018 25.0477011,40.9342019 25.6000012,40.9342019 C26.1523012,40.9342019 26.6000012,40.4865018 26.6000012,39.9342018 L26.6000012,37.8676017 C26.6000012,37.3154017 26.1523012,36.8676017 25.6000012,36.8676017 Z" id="Shape"></path>
                <path d="M39.9347018,24.5996011 L37.8680017,24.5996011 C37.3157017,24.5996011 36.8680017,25.0474011 36.8680017,25.5996012 C36.8680017,26.1518012 37.3157017,26.5996012 37.8680017,26.5996012 L39.9347018,26.5996012 C40.4870018,26.5996012 40.9347019,26.1518012 40.9347019,25.5996012 C40.9347019,25.0474011 40.4870018,24.5996011 39.9347018,24.5996011 Z" id="Shape"></path>
                <path d="M13.3320006,24.5996011 L11.2653005,24.5996011 C10.7130005,24.5996011 10.2653005,25.0474011 10.2653005,25.5996012 C10.2653005,26.1518012 10.7130005,26.5996012 11.2653005,26.5996012 L13.3320006,26.5996012 C13.8843006,26.5996012 14.3320007,26.1518012 14.3320007,25.5996012 C14.3320007,25.0474011 13.8843006,24.5996011 13.3320006,24.5996011 Z" id="Shape"></path>
                <path d="M50.2000023,24.5997011 L43.958402,24.5997011 C43.406102,24.5997011 42.958402,25.0475011 42.958402,25.5997012 L42.958402,25.6414012 C42.958402,35.2358016 35.1528016,43.041402 25.5584012,43.041402 C18.0507008,43.041402 11.4145005,38.2590017 9.04510041,31.1408014 C8.89490041,30.6895014 8.7618004,30.2262014 8.64940039,29.7637014 C8.51900039,29.2271013 7.97860036,28.8975013 7.44160034,29.0280013 C6.90490031,29.1584013 6.5755003,29.6991014 6.70590031,30.2358014 C6.83130031,30.7519014 6.97990032,31.2689014 7.14750033,31.7725014 C9.78930045,39.7090018 17.1881008,45.0413021 25.5584012,45.0413021 C35.9344016,45.0413021 44.433902,36.8535017 44.935002,26.5996012 L49.1794022,26.5996012 C48.9339022,32.5283015 46.5087021,38.0663017 42.2877019,42.2873019 C37.8303017,46.7448021 31.9038015,49.1996022 25.6000012,49.1996022 C19.2962009,49.1996022 13.3697006,46.7448021 8.91230041,42.2873019 C-0.289300013,33.0856015 -0.289300013,18.1136008 8.91230041,8.91190041 C18.0185008,-0.194300009 32.9106015,-0.272300012 42.1094019,8.7380004 C42.5011019,9.12160042 43.128602,9.11840042 43.516302,8.7308004 L43.800002,8.44710038 L43.800002,13.8664006 L38.3809017,13.8664006 L39.0916018,13.1557006 C39.2798018,12.9675006 39.3852018,12.7121006 39.3845018,12.4461006 C39.3839018,12.1800006 39.2772018,11.9251005 39.0881018,11.7379005 C39.0859018,11.7358005 39.0787018,11.7286005 39.0765018,11.7265005 C35.4363016,8.18930037 30.6355014,6.24130028 25.5585012,6.24130028 C21.284901,6.24130028 17.2317008,7.60380035 13.8368006,10.1816005 C10.5523005,12.6755006 8.10520037,16.2165007 6.94620032,20.1520009 C6.79020031,20.6818009 7.09320032,21.237701 7.62300035,21.393801 C8.15270037,21.549601 8.7086004,21.246801 8.8647004,20.7170009 C11.0278005,13.3714006 17.8925008,8.24120038 25.5584012,8.24120038 C29.7751014,8.24120038 33.7793015,9.73930044 36.9398017,12.4788006 L35.2594016,14.1592006 C34.9734016,14.4452007 34.8878016,14.8753007 35.0426016,15.2490007 C35.1974016,15.6226007 35.5621016,15.8663007 35.9665016,15.8663007 L44.800002,15.8663007 C45.3523021,15.8663007 45.8000021,15.4185007 45.8000021,14.8663007 L45.8000021,6.03280027 C45.8000021,5.62830026 45.5564021,5.26370024 45.1827021,5.10890023 C44.809102,4.95430023 44.378802,5.03970023 44.092902,5.32570024 L42.7887019,6.6300003 C38.0382017,2.31700011 31.9309015,-0.0318000014 25.4742012,0.000800000036 C18.6840009,0.0334000015 12.3000006,2.69580012 7.49800034,7.49760034 C2.66290012,12.3329006 0,18.7616009 0,25.5996012 C0,32.4376015 2.66290012,38.8663018 7.49800034,43.701602 C12.3333006,48.5367022 18.7620009,51.1996023 25.6000012,51.1996023 C32.4380015,51.1996023 38.8667018,48.5367022 43.702002,43.701702 C48.5371022,38.8665018 51.2000023,32.4378015 51.2000023,25.5997012 C51.2000023,25.0475011 50.7523023,24.5997011 50.2000023,24.5997011 Z" id="Shape"></path>
                <path d="M7.15830033,24.6267011 C6.6060003,24.6267011 6.15830028,25.0745011 6.15830028,25.6267012 L6.15830028,25.6413012 C6.15830028,26.1935012 6.6060003,26.6413012 7.15830033,26.6413012 C7.71060035,26.6413012 8.15830037,26.1935012 8.15830037,25.6413012 L8.15830037,25.6267012 C8.15830037,25.0745011 7.71060035,24.6267011 7.15830033,24.6267011 Z" id="Shape"></path>
            </g>
        </g>
    </g>
</svg>