<?xml version="1.0" encoding="UTF-8"?>
<svg width="88px" height="88px" viewBox="0 0 88 88" version="1.1" xmlns="http://www.w3.org/2000/svg" xmlns:xlink="http://www.w3.org/1999/xlink">
    <!-- Generator: Sketch 48.2 (47327) - http://www.bohemiancoding.com/sketch -->
    <title>icon / 9</title>
    <desc>Created with Sketch.</desc>
    <defs></defs>
    <g id="styleguide" stroke="none" stroke-width="1" fill="none" fill-rule="evenodd" transform="translate(-503.000000, -1226.000000)">
        <g id="icon-/-9" transform="translate(503.000000, 1226.000000)">
            <g id="icon-/-back" fill="#2AD4CE">
                <rect id="Rectangle-7-Copy" x="0" y="0" width="88" height="88" rx="44"></rect>
            </g>
            <g id="048-like" transform="translate(18.000000, 18.000000)" fill="#FFFFFF" fill-rule="nonzero">
                <path d="M50.6765023,25.4742012 C51.7005024,23.8101011 51.4435023,21.690201 50.0515023,20.3189009 L48.0555022,18.3526008 C47.6026022,17.9065008 47.3687022,17.2869008 47.4139022,16.6528008 L47.6139022,13.8445006 C47.7534022,11.8864005 46.5380021,10.1230005 44.658602,9.55650044 L42.0155019,8.7597004 C41.4028019,8.57490039 40.9055019,8.13230037 40.6511019,7.54520034 L39.5447018,4.99300023 C38.7713018,3.20860015 36.8243017,2.1854001 34.9164016,2.55990012 L32.2347015,3.08620014 C31.6035014,3.21020015 30.9544014,3.04940014 30.4539014,2.64530012 L28.3190013,0.921800042 C26.8014012,-0.303500014 24.5984011,-0.303400014 23.0808011,0.921800042 L20.946001,2.64540012 C20.4454009,3.04940014 19.7962009,3.21000015 19.1652009,3.08630014 L16.4832008,2.55990012 C14.5753007,2.1856001 12.6286006,3.20850015 11.8550005,4.99260023 L10.7481005,7.54550034 C10.4937005,8.13250037 9.99630046,8.57500039 9.38380043,8.7598004 L6.74120031,9.55650044 C4.86180022,10.1231005 3.64650017,11.8863005 3.78600017,13.8444006 L3.98600018,16.6529008 C4.03120018,17.2870008 3.79720017,17.9066008 3.34440015,18.3527008 L1.34840006,20.3191009 C-0.043400002,21.690301 -0.300500014,23.8102011 0.723500033,25.4743012 L2.1994001,27.8727013 C2.53200012,28.4133013 2.61140012,29.0699013 2.41710011,29.6740014 L1.55360007,32.3594015 C0.954500043,34.2226016 1.71140008,36.2216016 3.39430015,37.2208017 L5.78640026,38.6410018 C6.33460029,38.9664018 6.71050031,39.5136018 6.81760031,40.1421018 L7.28830033,42.903702 C7.61930035,44.845202 9.22430042,46.2694021 11.1914005,46.3672021 L13.9314006,46.5034021 C14.5724007,46.5352021 15.1627007,46.8465021 15.5510007,47.3574022 L17.2216008,49.5554023 C18.0270008,50.6152023 19.2795009,51.1972023 20.5552009,51.1972023 C21.147601,51.1972023 21.745101,51.0717023 22.305101,50.8102023 L24.7818011,49.6536023 C25.3653012,49.3812022 26.0346012,49.3812022 26.6179012,49.6536023 L29.0945013,50.8102023 C30.8607014,51.6349024 32.9987015,51.1072023 34.1782016,49.5550023 L35.8482016,47.3575022 C36.2365017,46.8464021 36.8270017,46.5351021 37.4681017,46.5033021 L40.2085018,46.3671021 C42.1756019,46.2693021 43.780602,44.845102 44.111602,42.903502 L44.582302,40.1419018 C44.689402,39.5134018 45.0653021,38.9663018 45.6135021,38.6409018 L48.0056022,37.2207017 C49.6886023,36.2215016 50.4454023,34.2225016 49.8463023,32.3593015 L48.9828022,29.6738014 C48.7885022,29.0696013 48.8678022,28.4131013 49.2005022,27.8725013 L50.6765023,25.4742012 Z M47.4975022,26.8248012 C46.8583021,27.8635013 46.7060021,29.1250013 47.0793021,30.2861014 L47.9428022,32.9716015 C48.2546022,33.9412015 47.8607022,34.9816016 46.9849021,35.5015016 L44.592802,36.9217017 C43.539302,37.5472017 42.8170019,38.5985018 42.6112019,39.8061018 L42.1405019,42.5677019 C41.9682019,43.578102 41.1330019,44.319402 40.1093018,44.370102 L37.3689017,44.506302 C36.1369016,44.567502 35.0025016,45.1658021 34.2562016,46.1479021 L32.5862015,48.3454022 C31.9724015,49.1530022 30.8598014,49.4276023 29.9406014,48.9986022 L27.4640013,47.8420022 C26.3429012,47.3185022 25.0569011,47.3185022 23.9358011,47.8420022 L21.459101,48.9986022 C20.5400009,49.4276023 19.4274009,49.1531022 18.8136009,48.3456022 L17.1430008,46.1476021 C16.3967007,45.1658021 15.2623007,44.567502 14.0306006,44.506302 L11.2906005,44.370102 C10.2669005,44.319302 9.43170043,43.578102 9.25950042,42.5678019 L8.7888004,39.8062018 C8.58290039,38.5985018 7.86070036,37.5472017 6.80720031,36.9218017 L4.4150002,35.5015016 C3.53930016,34.9815016 3.14540014,33.9412015 3.45710016,32.9716015 L4.3206002,30.2861014 C4.69390021,29.1251013 4.54150021,27.8636013 3.90230018,26.8248012 L2.42640011,24.4263011 C1.89350009,23.5603011 2.02730009,22.457101 2.75160013,21.743501 L4.74770022,19.7772009 C5.61790026,18.9199009 6.06720028,17.7294008 5.98060027,16.5109008 L5.78060026,13.7024006 C5.70800026,12.6835006 6.34050029,11.7659005 7.31850033,11.4710005 L9.96110045,10.6743005 C11.1382005,10.3194005 12.0938006,9.46890043 12.5828006,8.34110038 L13.6897006,5.78830026 C14.0366006,4.98830023 14.8366007,4.4823002 15.6866007,4.4823002 C15.8231007,4.4823002 15.9608007,4.4953002 16.0982007,4.52230021 L18.7802009,5.04870023 C19.9931009,5.28670024 21.240501,4.97790023 22.202201,4.20140019 L24.3370011,2.47780011 C25.1267011,1.84010008 26.2731012,1.84010008 27.0630012,2.47780011 L29.1978013,4.20130019 C30.1595014,4.97770023 31.4068014,5.28650024 32.6199015,5.04860023 L35.3016016,4.52230021 C36.2950017,4.3274002 37.3076017,4.85980022 37.7102017,5.78840026 L38.8165018,8.34060038 C39.3055018,9.46880043 40.2612018,10.3194005 41.4385019,10.6742005 L44.081602,11.4710005 C45.0597021,11.7658005 45.6921021,12.6835006 45.6196021,13.7025006 L45.4196021,16.5109008 C45.3328021,17.7295008 45.7821021,18.9199009 46.6525021,19.7773009 L48.6485022,21.743601 C49.3729022,22.457201 49.5066023,23.5603011 48.9737022,24.4264011 L47.4975022,26.8248012 Z" id="Shape"></path>
                <path d="M14.5140007,32.1870015 C13.9618006,32.1870015 13.5142006,32.6391015 13.5142006,33.1913015 C13.5142006,33.7435015 13.9618006,34.1911016 14.5140007,34.1911016 C15.0662007,34.1911016 15.5138007,33.7435015 15.5138007,33.1913015 L15.5138007,33.1824015 C15.5137007,32.6302015 15.0661007,32.1870015 14.5140007,32.1870015 Z" id="Shape"></path>
                <path d="M41.7635019,26.5259012 C41.7634019,25.2161011 40.9394019,24.0956011 39.7827018,23.6543011 C39.9606018,23.2658011 40.0605018,22.834501 40.0605018,22.379901 C40.0605018,20.6855009 38.6820018,19.3071009 36.9877017,19.3071009 L30.5498014,19.3071009 C30.3704014,19.3071009 30.1949014,19.3234009 30.0238014,19.3531009 L30.4135014,17.2680008 C30.9231014,14.5415007 29.3061013,11.8771005 26.6524012,11.0703005 L25.7528012,10.7968005 C25.2437011,10.6421005 24.7029011,10.9129005 24.5217011,11.4132005 L22.776001,16.2379007 C22.311101,17.5228008 21.394101,18.5904008 20.1940009,19.2439009 L18.8701009,19.9649009 C18.5041008,19.5620009 17.9778008,19.3070009 17.3918008,19.3070009 L11.6362005,19.3070009 C10.5336005,19.3070009 9.63660044,20.2040009 9.63660044,21.306601 L9.63660044,35.8910016 C9.63660044,36.9936017 10.5336005,37.8906017 11.6362005,37.8906017 L17.3918008,37.8906017 C18.4179008,37.8906017 19.2649009,37.1135017 19.3777009,36.1170016 L19.6648009,36.3250017 C21.079001,37.3492017 22.749501,37.8906017 24.4956011,37.8906017 L35.9743016,37.8906017 C37.6687017,37.8906017 39.0471018,36.5122017 39.0471018,34.8178016 C39.0471018,34.2532016 38.8933018,33.7241015 38.6266018,33.2690015 C39.4873018,32.7239015 40.0603018,31.7638014 40.0603018,30.6718014 C40.0603018,30.2173014 39.9603018,29.7860014 39.7825018,29.3975013 C40.9393019,28.9561013 41.7635019,27.8357013 41.7635019,26.5259012 Z M17.3918008,35.8910016 L11.6362005,35.8910016 L11.6362005,21.306701 L13.5142006,21.306701 L13.5142006,29.3585013 C13.5142006,29.9107014 13.9618006,30.3583014 14.5140007,30.3583014 C15.0662007,30.3583014 15.5138007,29.9107014 15.5138007,29.3585013 L15.5138007,21.306701 L17.3530008,21.306701 C17.3430008,21.428901 17.3550008,21.553601 17.3917008,21.675001 L17.3917008,35.8910016 L17.3918008,35.8910016 Z M28.4477013,16.9006008 L27.5366013,21.775301 C27.5363013,21.777101 27.5362013,21.778801 27.5359013,21.780601 C27.5119013,21.901401 27.4956013,22.024801 27.4863013,22.150101 L27.0587012,23.5956011 C26.5155012,25.4318012 24.7987011,26.7143012 22.883701,26.7143012 C22.331501,26.7143012 21.883901,27.1619012 21.883901,27.7141013 C21.883901,28.2663013 22.331501,28.7139013 22.883701,28.7139013 C24.6543011,28.7139013 26.3079012,27.9619013 27.4843013,26.7299012 C27.5316013,27.4477012 27.8259013,28.0990013 28.2835013,28.5988013 C27.7828013,29.1457013 27.4767013,29.8735014 27.4767013,30.6718014 C27.4767013,31.4939014 27.8018013,32.2410015 28.3295013,32.7930015 C27.8543013,33.3342015 27.5652013,34.0427016 27.5652013,34.8178016 C27.5652013,35.1951016 27.6340013,35.5567016 27.7590013,35.8910016 L24.4956011,35.8910016 C23.1736011,35.8909016 21.908601,35.4810016 20.8378009,34.7054016 L19.3914009,33.6578015 L19.3914009,21.957801 L21.150301,21.000101 C22.779901,20.1128009 24.0250011,18.6631008 24.6563011,16.9183008 L26.0790012,12.9860006 C27.7513013,13.4989006 28.7692013,15.1802007 28.4477013,16.9006008 Z M30.5497014,21.306701 L36.9876017,21.306701 C37.5794017,21.306701 38.0608017,21.788101 38.0608017,22.379901 C38.0608017,22.971701 37.5794017,23.4531011 36.9876017,23.4531011 L30.5497014,23.4531011 C29.9580014,23.4531011 29.4765013,22.971701 29.4765013,22.379901 C29.4765013,21.788101 29.9579014,21.306701 30.5497014,21.306701 Z M35.9745016,35.8910016 L30.6382014,35.8910016 C30.0464014,35.8910016 29.5650013,35.4096016 29.5650013,34.8178016 C29.5650013,34.2260016 30.0464014,33.7446015 30.6382014,33.7446015 L35.9745016,33.7446015 C36.5663017,33.7446015 37.0477017,34.2260016 37.0477017,34.8178016 C37.0477017,35.4096016 36.5663017,35.8910016 35.9745016,35.8910016 Z M36.9877017,31.7450014 L35.9746016,31.7450014 L30.6383014,31.7450014 L30.5498014,31.7450014 C29.9581014,31.7450014 29.4766013,31.2636014 29.4766013,30.6718014 C29.4766013,30.0800014 29.9580014,29.5986013 30.5498014,29.5986013 L36.9877017,29.5986013 C37.5794017,29.5986013 38.0609017,30.0801014 38.0609017,30.6718014 C38.0609017,31.2635014 37.5795017,31.7450014 36.9877017,31.7450014 Z M38.6906018,27.5990013 L36.9876017,27.5990013 L30.5497014,27.5990013 C29.9580014,27.5990013 29.4765013,27.1176012 29.4765013,26.5258012 C29.4765013,25.9340012 29.9579014,25.4526012 30.5497014,25.4526012 L36.9876017,25.4526012 L38.6906018,25.4526012 C39.2823018,25.4526012 39.7638018,25.9340012 39.7638018,26.5258012 C39.7638018,27.1175012 39.2824018,27.5990013 38.6906018,27.5990013 Z" id="Shape"></path>
            </g>
        </g>
    </g>
</svg>